<svg width="185" height="58" viewBox="0 0 185 58" fill="none" xmlns="http://www.w3.org/2000/svg">
<g clip-path="url(#clip0)">
<path d="M26.3069 46.1523L33.5066 50.3122L26.3069 54.4722V46.1523ZM41.7434 54.028H43.741V46.6135H41.7434V54.028ZM47.5661 54.028H49.5637V46.6135H47.5661V54.028ZM54.0263 43.7776V56.8639C54.0263 57.496 53.5163 58 52.8958 58H5.26873C4.63971 58 4.1382 57.4875 4.1382 56.8639V43.7776C4.1382 43.1455 4.64821 42.6415 5.26873 42.6415H52.8958C53.5248 42.633 54.0263 43.1455 54.0263 43.7776ZM18.0786 50.3208C18.0786 47.4336 15.7496 45.0931 12.8765 45.0931C10.0034 45.0931 7.67431 47.4336 7.67431 50.3208C7.67431 53.208 10.0034 55.5485 12.8765 55.5485C15.7496 55.5485 18.0786 53.208 18.0786 50.3208ZM34.9772 50.3208C34.9772 49.9791 34.7987 49.6716 34.5097 49.5007L26.5109 44.8795C26.2219 44.7087 25.8649 44.7087 25.5674 44.8795C25.2784 45.0504 25.0999 45.3579 25.0999 45.6996V54.942C25.0999 55.2751 25.2784 55.5912 25.5674 55.762C25.7119 55.8474 25.8734 55.8901 26.0349 55.8901C26.1964 55.8901 26.3579 55.8474 26.5024 55.762L34.5012 51.1408C34.7987 50.97 34.9772 50.6539 34.9772 50.3208ZM44.948 46.2804C44.948 45.7935 44.557 45.4006 44.0725 45.4006H41.4204C40.9359 45.4006 40.5449 45.7935 40.5449 46.2804V54.3526C40.5449 54.8395 40.9359 55.2324 41.4204 55.2324H44.0725C44.557 55.2324 44.948 54.8395 44.948 54.3526V46.2804ZM50.7622 46.2804C50.7622 45.7935 50.3712 45.4006 49.8867 45.4006H47.2346C46.7501 45.4006 46.3591 45.7935 46.3591 46.2804V54.3526C46.3591 54.8395 46.7501 55.2324 47.2346 55.2324H49.8867C50.3712 55.2324 50.7622 54.8395 50.7622 54.3526V46.2804ZM17.7981 20.142C14.772 20.142 12.3155 22.6106 12.3155 25.6515C12.3155 28.6925 14.772 31.1611 17.7981 31.1611C20.8242 31.1611 23.2808 28.6925 23.2808 25.6515C23.2808 22.6106 20.8327 20.142 17.7981 20.142ZM57.3414 27.4795L49.4787 41.1638H8.34583L0.483078 27.4795C-0.171443 26.3434 -0.171443 24.9511 0.483078 23.8236L13.123 1.82798C13.7775 0.700442 14.976 0 16.2766 0H41.5479C42.8485 0 44.047 0.700442 44.7015 1.82798L57.3414 23.8236C57.9874 24.9596 57.9874 26.352 57.3414 27.4795ZM27.9305 25.6515C27.9305 20.0309 23.3998 15.4781 17.8066 15.4781C12.2135 15.4781 7.68281 20.0309 7.68281 25.6515C7.68281 31.2722 12.2135 35.825 17.8066 35.825C23.3913 35.825 27.9305 31.2722 27.9305 25.6515ZM50.1502 25.6515C50.1502 20.0309 45.6195 15.4781 40.0264 15.4781C34.4332 15.4781 29.9025 20.0309 29.9025 25.6515C29.9025 31.2722 34.4332 35.825 40.0264 35.825C45.6195 35.825 50.1502 31.2722 50.1502 25.6515ZM45.509 25.6515C45.509 28.6925 43.0525 31.1611 40.0264 31.1611C37.0003 31.1611 34.5437 28.6925 34.5437 25.6515C34.5437 22.6106 37.0003 20.142 40.0264 20.142C43.0525 20.142 45.509 22.6106 45.509 25.6515ZM43.9025 25.6515C43.9025 23.499 42.1684 21.7564 40.0264 21.7564C37.8843 21.7564 36.1502 23.499 36.1502 25.6515C36.1502 27.8041 37.8843 29.5467 40.0264 29.5467C42.1684 29.5467 43.9025 27.8041 43.9025 25.6515Z" fill="#ffffff"/>
<path d="M111.413 10.3016L111.056 8.91783C111.047 8.8922 111.031 8.88366 110.997 8.88366H108.37C108.327 8.88366 108.31 8.8922 108.31 8.91783L107.97 10.3016C107.962 10.37 107.919 10.4127 107.843 10.4127H106.916C106.874 10.4127 106.848 10.4041 106.831 10.3785C106.814 10.3529 106.806 10.3273 106.814 10.2845L109.007 2.16967C109.024 2.10133 109.067 2.05862 109.135 2.05862H110.248C110.316 2.05862 110.359 2.09279 110.376 2.16967L112.586 10.2845L112.595 10.3187C112.595 10.3785 112.552 10.4127 112.476 10.4127H111.541C111.473 10.4127 111.43 10.3785 111.413 10.3016ZM108.574 7.96113C108.582 7.96967 108.599 7.97821 108.616 7.97821H110.767C110.784 7.97821 110.801 7.96967 110.809 7.96113C110.818 7.95259 110.826 7.9355 110.818 7.92696L109.713 3.60472C109.704 3.58764 109.696 3.5791 109.687 3.5791C109.679 3.5791 109.67 3.58764 109.662 3.60472L108.574 7.92696C108.557 7.9355 108.557 7.94404 108.574 7.96113Z" fill="#ffffff"/>
<path d="M116.59 4.33932H117.491C117.567 4.33932 117.61 4.38203 117.61 4.45891V10.2931C117.61 10.37 117.567 10.4127 117.491 10.4127H116.59C116.513 10.4127 116.471 10.37 116.471 10.2931V9.92578C116.471 9.90869 116.462 9.90015 116.454 9.89161C116.445 9.88307 116.428 9.89161 116.411 9.90015C116.131 10.3016 115.697 10.4981 115.102 10.4981C114.567 10.4981 114.116 10.3358 113.767 10.0197C113.419 9.70368 113.24 9.24242 113.24 8.63594V4.45891C113.24 4.38203 113.283 4.33932 113.359 4.33932H114.252C114.329 4.33932 114.371 4.38203 114.371 4.45891V8.31989C114.371 8.69573 114.456 8.98616 114.635 9.19117C114.813 9.39617 115.068 9.49868 115.4 9.49868C115.723 9.49868 115.986 9.38763 116.173 9.17408C116.369 8.95199 116.462 8.66156 116.462 8.28572V4.45891C116.471 4.38203 116.513 4.33932 116.59 4.33932Z" fill="#ffffff"/>
<path d="M121.375 5.21914H120.321C120.287 5.21914 120.27 5.23622 120.27 5.27039V8.54196C120.27 8.86656 120.338 9.09719 120.466 9.22532C120.593 9.35345 120.797 9.42179 121.078 9.42179H121.307C121.384 9.42179 121.426 9.4645 121.426 9.54137V10.2931C121.426 10.3699 121.384 10.4127 121.307 10.4127L120.848 10.4212C120.296 10.4212 119.879 10.3187 119.599 10.1051C119.318 9.89159 119.174 9.49866 119.174 8.92635V5.27039C119.174 5.23622 119.157 5.21914 119.123 5.21914H118.545C118.468 5.21914 118.426 5.17643 118.426 5.09955V4.4589C118.426 4.38202 118.468 4.33931 118.545 4.33931H119.123C119.157 4.33931 119.174 4.32223 119.174 4.28806V2.92135C119.174 2.84447 119.216 2.80176 119.293 2.80176H120.16C120.236 2.80176 120.279 2.84447 120.279 2.92135V4.2966C120.279 4.33077 120.296 4.34785 120.33 4.34785H121.384C121.46 4.34785 121.503 4.39056 121.503 4.46744V5.10809C121.494 5.18497 121.452 5.21914 121.375 5.21914Z" fill="#ffffff"/>
<path d="M122.999 10.0197C122.599 9.69514 122.37 9.2595 122.285 8.70427C122.225 8.3028 122.191 7.85862 122.191 7.37172C122.191 6.86775 122.225 6.43211 122.285 6.04772C122.361 5.50103 122.599 5.06539 122.999 4.73225C123.398 4.39912 123.9 4.24536 124.52 4.24536C125.133 4.24536 125.634 4.40766 126.025 4.73225C126.425 5.05685 126.654 5.49249 126.739 6.03063C126.799 6.37231 126.833 6.8165 126.833 7.36318C126.833 7.90987 126.799 8.35405 126.739 8.69573C126.663 9.25096 126.425 9.69514 126.034 10.0112C125.643 10.3358 125.141 10.4981 124.52 10.4981C123.9 10.4981 123.398 10.3443 122.999 10.0197ZM125.26 9.24242C125.464 9.06304 125.583 8.81532 125.634 8.51635C125.677 8.15759 125.694 7.7732 125.694 7.37172C125.694 6.96171 125.677 6.57732 125.634 6.23564C125.583 5.93667 125.464 5.68896 125.26 5.50957C125.056 5.33019 124.809 5.23623 124.503 5.23623C124.214 5.23623 123.959 5.33019 123.764 5.50957C123.56 5.68896 123.441 5.93667 123.39 6.23564C123.356 6.51753 123.339 6.89337 123.339 7.37172C123.339 7.85862 123.356 8.24301 123.39 8.51635C123.441 8.81532 123.56 9.06304 123.764 9.24242C123.968 9.4218 124.214 9.51576 124.52 9.51576C124.809 9.51576 125.056 9.4218 125.26 9.24242Z" fill="#ffffff"/>
<path d="M134.874 4.79204C135.18 5.1508 135.333 5.64624 135.333 6.28689V10.2931C135.333 10.3699 135.29 10.4127 135.214 10.4127H134.321C134.245 10.4127 134.202 10.3699 134.202 10.2931V6.44918C134.202 6.07334 134.117 5.78291 133.939 5.56936C133.76 5.35581 133.514 5.24476 133.208 5.24476C132.902 5.24476 132.655 5.34727 132.468 5.56082C132.281 5.77437 132.188 6.05625 132.188 6.42356V10.2845C132.188 10.3614 132.145 10.4041 132.069 10.4041H131.176C131.1 10.4041 131.057 10.3614 131.057 10.2845V6.44064C131.057 6.06479 130.964 5.77437 130.785 5.56082C130.607 5.34727 130.36 5.23622 130.063 5.23622C129.757 5.23622 129.51 5.33873 129.323 5.55228C129.136 5.76582 129.043 6.04771 129.043 6.41501V10.276C129.043 10.3529 129 10.3956 128.924 10.3956H128.031C127.955 10.3956 127.912 10.3529 127.912 10.276V4.4589C127.912 4.38202 127.955 4.33932 128.031 4.33932H128.924C129 4.33932 129.043 4.38202 129.043 4.4589V4.81767C129.043 4.83475 129.051 4.84329 129.06 4.85183C129.068 4.86038 129.085 4.85183 129.102 4.84329C129.425 4.45036 129.876 4.26244 130.454 4.26244C130.802 4.26244 131.1 4.33077 131.355 4.47599C131.61 4.6212 131.805 4.82621 131.933 5.10809C131.958 5.14226 131.984 5.13372 132.001 5.09955C132.179 4.80912 132.4 4.60412 132.681 4.46744C132.961 4.33077 133.259 4.26244 133.573 4.26244C134.143 4.2539 134.568 4.43328 134.874 4.79204Z" fill="#ffffff"/>
<path d="M140.144 4.80059C140.544 5.16789 140.739 5.65479 140.739 6.25273V10.2931C140.739 10.37 140.697 10.4127 140.62 10.4127H139.719C139.643 10.4127 139.6 10.37 139.6 10.2931V9.9514C139.6 9.93432 139.592 9.92577 139.583 9.91723C139.575 9.91723 139.558 9.91723 139.541 9.93432C139.184 10.3187 138.69 10.5066 138.053 10.5066C137.534 10.5066 137.101 10.3614 136.735 10.0795C136.37 9.79764 136.191 9.34492 136.191 8.71281C136.191 8.06362 136.404 7.56819 136.829 7.22651C137.254 6.88483 137.823 6.72253 138.554 6.72253H139.549C139.583 6.72253 139.6 6.70545 139.6 6.67128V6.34669C139.6 6.00501 139.515 5.73166 139.337 5.5352C139.158 5.33873 138.903 5.23623 138.571 5.23623C138.308 5.23623 138.095 5.30457 137.925 5.4327C137.755 5.56083 137.653 5.74021 137.611 5.9623C137.602 6.03063 137.56 6.07334 137.483 6.07334L136.506 6.01355C136.472 6.01355 136.446 6.00501 136.421 5.97938C136.395 5.9623 136.387 5.93667 136.395 5.9025C136.446 5.40707 136.667 5.01414 137.067 4.70663C137.466 4.39912 137.968 4.24536 138.571 4.24536C139.218 4.24536 139.745 4.42474 140.144 4.80059ZM139.209 9.23387C139.464 9.03741 139.592 8.77261 139.592 8.43093V7.67069C139.592 7.63652 139.575 7.61944 139.541 7.61944H138.622C138.231 7.61944 137.925 7.70486 137.687 7.88424C137.458 8.06362 137.339 8.31134 137.339 8.64448C137.339 8.9349 137.424 9.157 137.602 9.31075C137.772 9.45597 138.002 9.53284 138.291 9.53284C138.648 9.5243 138.954 9.43034 139.209 9.23387Z" fill="#ffffff"/>
<path d="M144.352 5.21914H143.298C143.264 5.21914 143.247 5.23622 143.247 5.27039V8.54196C143.247 8.86656 143.315 9.09719 143.442 9.22532C143.57 9.35345 143.774 9.42179 144.054 9.42179H144.284C144.36 9.42179 144.403 9.4645 144.403 9.54137V10.2931C144.403 10.3699 144.36 10.4127 144.284 10.4127L143.825 10.4212C143.272 10.4212 142.856 10.3187 142.575 10.1051C142.295 9.89159 142.15 9.49866 142.15 8.92635V5.27039C142.15 5.23622 142.133 5.21914 142.099 5.21914H141.521C141.445 5.21914 141.402 5.17643 141.402 5.09955V4.4589C141.402 4.38202 141.445 4.33931 141.521 4.33931H142.099C142.133 4.33931 142.15 4.32223 142.15 4.28806V2.92135C142.15 2.84447 142.193 2.80176 142.269 2.80176H143.136C143.213 2.80176 143.255 2.84447 143.255 2.92135V4.2966C143.255 4.33077 143.272 4.34785 143.306 4.34785H144.36C144.437 4.34785 144.479 4.39056 144.479 4.46744V5.10809C144.471 5.18497 144.437 5.21914 144.352 5.21914Z" fill="#ffffff"/>
<path d="M145.508 3.16907C145.363 3.02386 145.295 2.84448 145.295 2.62239C145.295 2.39175 145.363 2.20383 145.508 2.06716C145.652 1.93049 145.831 1.86215 146.052 1.86215C146.273 1.86215 146.46 1.93049 146.596 2.0757C146.732 2.22091 146.808 2.4003 146.808 2.62239C146.808 2.84448 146.732 3.02386 146.587 3.16907C146.443 3.31429 146.264 3.38262 146.043 3.38262C145.831 3.38262 145.652 3.31429 145.508 3.16907ZM145.474 10.2931V4.45891C145.474 4.38203 145.516 4.33932 145.593 4.33932H146.494C146.57 4.33932 146.613 4.38203 146.613 4.45891V10.2931C146.613 10.37 146.57 10.4127 146.494 10.4127H145.593C145.508 10.4127 145.474 10.37 145.474 10.2931Z" fill="#ffffff"/>
<path d="M148.576 10.0197C148.177 9.69514 147.947 9.2595 147.862 8.70427C147.803 8.3028 147.769 7.85862 147.769 7.37172C147.769 6.86775 147.803 6.43211 147.862 6.04772C147.939 5.50103 148.177 5.06539 148.576 4.73225C148.976 4.39912 149.477 4.24536 150.098 4.24536C150.71 4.24536 151.211 4.40766 151.602 4.73225C152.002 5.05685 152.231 5.49249 152.316 6.03063C152.376 6.37231 152.41 6.8165 152.41 7.36318C152.41 7.90987 152.376 8.35405 152.316 8.69573C152.24 9.25096 152.002 9.69514 151.611 10.0112C151.22 10.3358 150.718 10.4981 150.098 10.4981C149.477 10.4981 148.976 10.3443 148.576 10.0197ZM150.837 9.24242C151.041 9.06304 151.16 8.81532 151.211 8.51635C151.254 8.15759 151.271 7.7732 151.271 7.37172C151.271 6.96171 151.254 6.57732 151.211 6.23564C151.16 5.93667 151.041 5.68896 150.837 5.50957C150.633 5.33019 150.387 5.23623 150.081 5.23623C149.792 5.23623 149.537 5.33019 149.341 5.50957C149.137 5.68896 149.018 5.93667 148.967 6.23564C148.933 6.51753 148.916 6.89337 148.916 7.37172C148.916 7.85862 148.933 8.24301 148.967 8.51635C149.018 8.81532 149.137 9.06304 149.341 9.24242C149.545 9.4218 149.792 9.51576 150.098 9.51576C150.395 9.51576 150.642 9.4218 150.837 9.24242Z" fill="#ffffff"/>
<path d="M157.391 4.79205C157.714 5.15081 157.875 5.64625 157.875 6.26981V10.2931C157.875 10.37 157.833 10.4127 157.756 10.4127H156.855C156.779 10.4127 156.736 10.37 156.736 10.2931V6.44065C156.736 6.07335 156.643 5.78292 156.456 5.56937C156.269 5.35582 156.022 5.24477 155.699 5.24477C155.376 5.24477 155.113 5.35582 154.926 5.56937C154.73 5.79146 154.637 6.08189 154.637 6.44919V10.2931C154.637 10.37 154.594 10.4127 154.518 10.4127H153.617C153.54 10.4127 153.498 10.37 153.498 10.2931V4.45891C153.498 4.38204 153.54 4.33933 153.617 4.33933H154.518C154.594 4.33933 154.637 4.38204 154.637 4.45891V4.82622C154.637 4.85184 154.645 4.86039 154.654 4.86893C154.662 4.86893 154.679 4.86039 154.696 4.83476C155.002 4.44183 155.453 4.25391 156.048 4.25391C156.626 4.25391 157.076 4.43329 157.391 4.79205Z" fill="#ffffff"/>
<path d="M162.304 10.1991C161.922 9.99412 161.624 9.71223 161.412 9.33639C161.199 8.96908 161.097 8.54198 161.097 8.05509V4.39913C161.097 3.65597 161.327 3.06658 161.794 2.63094C162.262 2.1953 162.865 1.97321 163.63 1.97321C164.387 1.97321 164.999 2.1953 165.458 2.63094C165.917 3.06658 166.146 3.64743 166.146 4.3735V4.46746C166.146 4.51017 166.138 4.5358 166.112 4.56142C166.087 4.58705 166.061 4.59559 166.027 4.59559L165.126 4.64684C165.05 4.64684 165.007 4.60413 165.007 4.52726V4.33933C165.007 3.92932 164.88 3.58764 164.625 3.33992C164.37 3.08366 164.038 2.95553 163.63 2.95553C163.222 2.95553 162.882 3.08366 162.627 3.33992C162.372 3.59618 162.245 3.92932 162.245 4.33933V8.13197C162.245 8.54198 162.372 8.88366 162.627 9.13138C162.882 9.38764 163.222 9.51577 163.63 9.51577C164.038 9.51577 164.378 9.38764 164.625 9.13138C164.871 8.87512 165.007 8.54198 165.007 8.13197V7.96113C165.007 7.88425 165.05 7.84154 165.126 7.84154L166.027 7.89279C166.104 7.89279 166.146 7.9355 166.146 8.01238V8.0978C166.146 8.57615 166.044 8.99471 165.832 9.36201C165.619 9.72932 165.33 10.0112 164.948 10.2077C164.565 10.4041 164.132 10.5066 163.63 10.5066C163.129 10.5066 162.695 10.4041 162.304 10.1991Z" fill="#ffffff"/>
<path d="M167.2 10.2931V2.17821C167.2 2.10133 167.243 2.05862 167.319 2.05862H168.22C168.297 2.05862 168.339 2.10133 168.339 2.17821V10.2931C168.339 10.37 168.297 10.4127 168.22 10.4127H167.319C167.243 10.4127 167.2 10.37 167.2 10.2931Z" fill="#ffffff"/>
<path d="M170.184 10.0197C169.784 9.69514 169.555 9.2595 169.47 8.70427C169.41 8.3028 169.376 7.85862 169.376 7.37172C169.376 6.86775 169.41 6.43211 169.47 6.04772C169.546 5.50103 169.784 5.06539 170.184 4.73225C170.584 4.39912 171.085 4.24536 171.706 4.24536C172.318 4.24536 172.819 4.40766 173.21 4.73225C173.61 5.05685 173.839 5.49249 173.924 6.03063C173.984 6.37231 174.018 6.8165 174.018 7.36318C174.018 7.90987 173.984 8.35405 173.924 8.69573C173.848 9.25096 173.61 9.69514 173.219 10.0112C172.828 10.3358 172.326 10.4981 171.706 10.4981C171.085 10.4981 170.584 10.3443 170.184 10.0197ZM172.445 9.24242C172.649 9.06304 172.768 8.81532 172.819 8.51635C172.862 8.15759 172.879 7.7732 172.879 7.37172C172.879 6.96171 172.862 6.57732 172.819 6.23564C172.768 5.93667 172.649 5.68896 172.445 5.50957C172.241 5.33019 171.995 5.23623 171.689 5.23623C171.4 5.23623 171.145 5.33019 170.949 5.50957C170.745 5.68896 170.626 5.93667 170.575 6.23564C170.541 6.51753 170.524 6.89337 170.524 7.37172C170.524 7.85862 170.541 8.24301 170.575 8.51635C170.626 8.81532 170.745 9.06304 170.949 9.24242C171.153 9.4218 171.4 9.51576 171.706 9.51576C171.995 9.51576 172.241 9.4218 172.445 9.24242Z" fill="#ffffff"/>
<path d="M178.387 4.33932H179.288C179.364 4.33932 179.407 4.38203 179.407 4.45891V10.2931C179.407 10.37 179.364 10.4127 179.288 10.4127H178.387C178.31 10.4127 178.268 10.37 178.268 10.2931V9.92578C178.268 9.90869 178.259 9.90015 178.251 9.89161C178.242 9.88307 178.225 9.89161 178.208 9.90015C177.928 10.3016 177.494 10.4981 176.899 10.4981C176.364 10.4981 175.913 10.3358 175.565 10.0197C175.216 9.70368 175.038 9.24242 175.038 8.63594V4.45891C175.038 4.38203 175.08 4.33932 175.157 4.33932H176.049C176.126 4.33932 176.168 4.38203 176.168 4.45891V8.31989C176.168 8.69573 176.253 8.98616 176.432 9.19117C176.61 9.39617 176.865 9.49868 177.197 9.49868C177.52 9.49868 177.783 9.38763 177.97 9.17408C178.166 8.95199 178.259 8.66156 178.259 8.28572V4.45891C178.268 4.38203 178.31 4.33932 178.387 4.33932Z" fill="#ffffff"/>
<path d="M183.98 2.05862H184.881C184.957 2.05862 185 2.10133 185 2.17821V10.2931C185 10.37 184.957 10.4127 184.881 10.4127H183.98C183.903 10.4127 183.861 10.37 183.861 10.2931V9.89161C183.861 9.87453 183.852 9.86599 183.835 9.85745C183.818 9.8489 183.81 9.85745 183.801 9.86599C183.521 10.2931 183.07 10.5066 182.458 10.5066C181.965 10.5066 181.574 10.3614 181.268 10.0795C180.971 9.79765 180.75 9.35347 180.605 8.75553C180.512 8.34552 180.461 7.89279 180.461 7.39736C180.461 6.88484 180.503 6.43211 180.58 6.03918C180.818 4.84331 181.464 4.25391 182.518 4.25391C182.824 4.25391 183.087 4.30516 183.291 4.40767C183.495 4.51017 183.665 4.66393 183.801 4.86893C183.818 4.88602 183.835 4.89456 183.844 4.89456C183.852 4.89456 183.861 4.88602 183.861 4.86039V2.17821C183.861 2.10133 183.895 2.05862 183.98 2.05862ZM183.844 7.37173C183.844 6.77379 183.784 6.32107 183.674 6.01356C183.606 5.7573 183.495 5.56938 183.351 5.4327C183.206 5.30457 183.011 5.23624 182.773 5.23624C182.305 5.23624 181.982 5.48396 181.795 5.98793C181.668 6.34669 181.608 6.80796 181.608 7.37173C181.608 7.94404 181.659 8.38823 181.761 8.69574C181.931 9.24242 182.263 9.51577 182.756 9.51577C183.215 9.51577 183.521 9.25097 183.682 8.71282C183.793 8.39677 183.844 7.95259 183.844 7.37173Z" fill="#ffffff"/>
<path d="M78.483 40.5231L77.4034 36.3375C77.3779 36.2692 77.3184 36.2265 77.2249 36.2265H69.2857C69.1667 36.2265 69.1072 36.2607 69.1072 36.3375L68.0616 40.5231C68.0361 40.7366 67.9086 40.8477 67.6706 40.8477H64.874C64.755 40.8477 64.6615 40.8135 64.602 40.7366C64.5425 40.6683 64.5255 40.5658 64.551 40.4462L71.1982 15.9051C71.2492 15.6916 71.3767 15.5805 71.5893 15.5805H74.9639C75.1764 15.5805 75.3124 15.6916 75.3549 15.9051L82.0361 40.4462L82.0701 40.5573C82.0701 40.7537 81.9511 40.8477 81.7131 40.8477H78.8825C78.6615 40.8562 78.534 40.7452 78.483 40.5231ZM69.8892 33.4333C69.9232 33.4674 69.9657 33.4845 70.0167 33.4845H76.5194C76.5704 33.4845 76.6129 33.4674 76.6469 33.4333C76.6809 33.3991 76.6894 33.3649 76.6639 33.3393L73.3233 20.2786C73.2978 20.2274 73.2723 20.2103 73.2553 20.2103C73.2298 20.2103 73.2043 20.2359 73.1873 20.2786L69.8807 33.3393C69.8467 33.3735 69.8467 33.3991 69.8892 33.4333Z" fill="#ffffff"/>
<path d="M94.1404 22.4825H96.869C97.107 22.4825 97.226 22.602 97.226 22.8412V40.4889C97.226 40.7281 97.107 40.8477 96.869 40.8477H94.1404C93.9024 40.8477 93.7834 40.7281 93.7834 40.4889V39.3699C93.7834 39.3187 93.7664 39.2845 93.7324 39.2589C93.6984 39.2333 93.6559 39.2503 93.6049 39.2931C92.7634 40.4975 91.4543 41.0954 89.6523 41.0954C88.0202 41.0954 86.6772 40.6171 85.6147 39.6518C84.5521 38.6866 84.0166 37.2942 84.0166 35.4662V22.8412C84.0166 22.602 84.1356 22.4825 84.3736 22.4825H87.0682C87.3062 22.4825 87.4252 22.602 87.4252 22.8412V34.5352C87.4252 35.6627 87.6972 36.5425 88.2327 37.1661C88.7683 37.7897 89.5418 38.1057 90.5533 38.1057C91.5308 38.1057 92.3214 37.7726 92.9079 37.1149C93.4944 36.4571 93.7834 35.5602 93.7834 34.4241V22.8412C93.7834 22.602 93.9024 22.4825 94.1404 22.4825Z" fill="#ffffff"/>
<path d="M108.616 25.1561H105.42C105.327 25.1561 105.276 25.2074 105.276 25.3013V35.1929C105.276 36.1838 105.471 36.8671 105.871 37.2686C106.262 37.6616 106.882 37.8666 107.724 37.8666H108.404C108.642 37.8666 108.761 37.9861 108.761 38.2253V40.4975C108.761 40.7367 108.642 40.8562 108.404 40.8562L107.001 40.8904C105.327 40.8904 104.06 40.5744 103.21 39.9337C102.36 39.2931 101.935 38.1143 101.935 36.3803V25.3013C101.935 25.2074 101.884 25.1561 101.791 25.1561H100.031C99.7931 25.1561 99.6741 25.0365 99.6741 24.7973V22.8498C99.6741 22.6106 99.7931 22.491 100.031 22.491H101.791C101.884 22.491 101.935 22.4398 101.935 22.3458V18.1944C101.935 17.9552 102.054 17.8356 102.292 17.8356H104.91C105.148 17.8356 105.267 17.9552 105.267 18.1944V22.3458C105.267 22.4398 105.318 22.491 105.412 22.491H108.608C108.846 22.491 108.965 22.6106 108.965 22.8498V24.7973C108.973 25.0365 108.854 25.1561 108.616 25.1561Z" fill="#ffffff"/>
<path d="M113.53 39.6774C112.331 38.7036 111.617 37.3711 111.379 35.6883C111.184 34.4839 111.09 33.1428 111.09 31.648C111.09 30.1361 111.184 28.795 111.379 27.6418C111.617 25.9847 112.34 24.6606 113.53 23.6698C114.728 22.6875 116.258 22.192 118.128 22.192C119.973 22.192 121.494 22.6875 122.693 23.6698C123.891 24.6606 124.606 25.9676 124.844 27.5991C125.039 28.6327 125.133 29.9823 125.133 31.6394C125.133 33.2966 125.039 34.6462 124.844 35.6798C124.606 37.3626 123.892 38.6951 122.71 39.6689C121.528 40.6427 119.998 41.1296 118.128 41.1296C116.258 41.1296 114.728 40.6512 113.53 39.6774ZM120.372 37.3113C120.984 36.7561 121.358 36.0215 121.503 35.1075C121.622 34.0226 121.681 32.8695 121.681 31.6394C121.681 30.3923 121.622 29.2477 121.503 28.2141C121.358 27.3001 120.984 26.5655 120.372 26.0103C119.76 25.4551 119.004 25.1817 118.094 25.1817C117.21 25.1817 116.462 25.4551 115.85 26.0103C115.238 26.5655 114.864 27.3001 114.72 28.2141C114.626 29.0598 114.575 30.1958 114.575 31.6394C114.575 33.1087 114.626 34.2618 114.72 35.1075C114.864 36.0215 115.238 36.7561 115.85 37.3113C116.462 37.8665 117.219 38.1399 118.128 38.1399C119.012 38.1484 119.76 37.8665 120.372 37.3113Z" fill="#ffffff"/>
<path d="M142.294 31.6138C142.294 33.1514 142.175 34.5266 141.937 35.731C141.223 39.3358 139.277 41.1467 136.123 41.1467C134.372 41.1467 133.08 40.5316 132.247 39.3101C132.222 39.2418 132.188 39.2076 132.137 39.2162C132.086 39.2247 132.069 39.2674 132.069 39.3443V47.3908C132.069 47.63 131.95 47.7496 131.712 47.7496H128.983C128.745 47.7496 128.626 47.63 128.626 47.3908V22.8412C128.626 22.602 128.745 22.4824 128.983 22.4824H131.712C131.95 22.4824 132.069 22.602 132.069 22.8412V23.9944C132.069 24.0456 132.086 24.0798 132.12 24.1054C132.154 24.131 132.196 24.114 132.247 24.0713C133.131 22.8241 134.474 22.192 136.268 22.192C137.772 22.192 138.988 22.6277 139.897 23.4904C140.807 24.3531 141.461 25.6942 141.869 27.4966C142.15 28.7523 142.294 30.119 142.294 31.6138ZM138.809 31.6821C138.809 29.9738 138.665 28.6412 138.376 27.676C138.112 26.8559 137.738 26.2409 137.262 25.8138C136.786 25.3953 136.149 25.1817 135.358 25.1817C134.619 25.1817 134.015 25.3953 133.565 25.8138C133.106 26.2324 132.766 26.8388 132.519 27.6333C132.23 28.5985 132.086 29.9396 132.086 31.6736C132.086 33.4503 132.239 34.8256 132.553 35.7908C132.791 36.5596 133.131 37.1405 133.573 37.5419C134.015 37.9349 134.593 38.1399 135.316 38.1399C136.701 38.1399 137.687 37.3796 138.257 35.8677C138.631 34.8598 138.809 33.4674 138.809 31.6821Z" fill="#ffffff"/>
<path d="M145.89 18.9461C145.457 18.5104 145.244 17.9638 145.244 17.2889C145.244 16.5885 145.457 16.0333 145.89 15.6147C146.324 15.1962 146.868 14.9826 147.539 14.9826C148.211 14.9826 148.763 15.1962 149.188 15.6318C149.622 16.0674 149.834 16.6227 149.834 17.2889C149.834 17.9638 149.613 18.519 149.171 18.9461C148.729 19.3817 148.185 19.5953 147.539 19.5953C146.868 19.5953 146.315 19.3817 145.89 18.9461ZM145.78 40.4889V22.8412C145.78 22.602 145.899 22.4825 146.137 22.4825H148.865C149.103 22.4825 149.222 22.602 149.222 22.8412V40.4889C149.222 40.7281 149.103 40.8477 148.865 40.8477H146.137C145.899 40.8562 145.78 40.7281 145.78 40.4889Z" fill="#ffffff"/>
<path d="M153.107 40.4889V15.9564C153.107 15.7172 153.226 15.5976 153.464 15.5976H156.193C156.431 15.5976 156.55 15.7172 156.55 15.9564V40.4889C156.55 40.7281 156.431 40.8477 156.193 40.8477H153.464C153.226 40.8562 153.107 40.7281 153.107 40.4889Z" fill="#ffffff"/>
<path d="M162.117 39.6774C160.919 38.7036 160.205 37.3711 159.966 35.6883C159.771 34.4839 159.677 33.1428 159.677 31.648C159.677 30.1361 159.771 28.795 159.966 27.6418C160.205 25.9847 160.927 24.6606 162.117 23.6698C163.316 22.6875 164.846 22.192 166.716 22.192C168.56 22.192 170.082 22.6875 171.28 23.6698C172.479 24.6606 173.193 25.9676 173.431 27.5991C173.626 28.6327 173.72 29.9823 173.72 31.6394C173.72 33.2966 173.626 34.6462 173.431 35.6798C173.193 37.3626 172.479 38.6951 171.297 39.6689C170.116 40.6427 168.586 41.1296 166.716 41.1296C164.846 41.1296 163.316 40.6512 162.117 39.6774ZM168.96 37.3113C169.572 36.7561 169.946 36.0215 170.09 35.1075C170.209 34.0226 170.269 32.8695 170.269 31.6394C170.269 30.3923 170.209 29.2477 170.09 28.2141C169.946 27.3001 169.572 26.5655 168.96 26.0103C168.348 25.4551 167.591 25.1817 166.682 25.1817C165.798 25.1817 165.05 25.4551 164.438 26.0103C163.826 26.5655 163.452 27.3001 163.307 28.2141C163.214 29.0598 163.163 30.1958 163.163 31.6394C163.163 33.1087 163.214 34.2618 163.307 35.1075C163.452 36.0215 163.826 36.7561 164.438 37.3113C165.05 37.8665 165.806 38.1399 166.716 38.1399C167.6 38.1484 168.348 37.8665 168.96 37.3113Z" fill="#ffffff"/>
<path d="M184.558 25.1561H181.362C181.268 25.1561 181.217 25.2074 181.217 25.3013V35.1929C181.217 36.1838 181.413 36.8671 181.812 37.2686C182.203 37.6616 182.824 37.8666 183.665 37.8666H184.345C184.583 37.8666 184.702 37.9861 184.702 38.2253V40.4975C184.702 40.7367 184.583 40.8562 184.345 40.8562L182.943 40.8904C181.268 40.8904 180.002 40.5744 179.152 39.9337C178.302 39.2931 177.877 38.1143 177.877 36.3803V25.3013C177.877 25.2074 177.826 25.1561 177.732 25.1561H175.972C175.734 25.1561 175.615 25.0365 175.615 24.7973V22.8498C175.615 22.6106 175.734 22.491 175.972 22.491H177.732C177.826 22.491 177.877 22.4398 177.877 22.3458V18.1944C177.877 17.9552 177.996 17.8356 178.234 17.8356H180.852C181.09 17.8356 181.209 17.9552 181.209 18.1944V22.3458C181.209 22.4398 181.26 22.491 181.353 22.491H184.549C184.787 22.491 184.906 22.6106 184.906 22.8498V24.7973C184.923 25.0365 184.804 25.1561 184.558 25.1561Z" fill="#ffffff"/>
</g>
<defs>
<clipPath id="clip0">
<rect width="185" height="58" fill="white"/>
</clipPath>
</defs>
</svg>