
<svg width="228" height="67" viewBox="0 0 228 67" fill="none" xmlns="http://www.w3.org/2000/svg">
<path d="M143.759 21.9309C143.686 21.9309 143.641 21.8942 143.624 21.8207L143.257 20.4006C143.249 20.3761 143.229 20.3639 143.196 20.3639H140.49C140.45 20.3639 140.429 20.3761 140.429 20.4006L140.074 21.8207C140.066 21.8942 140.021 21.9309 139.939 21.9309H138.985C138.944 21.9309 138.911 21.9187 138.887 21.8942C138.87 21.8697 138.866 21.837 138.874 21.7962L141.139 13.4713C141.156 13.3979 141.2 13.3611 141.274 13.3611H142.425C142.498 13.3611 142.543 13.3979 142.559 13.4713L144.836 21.7962L144.849 21.833C144.849 21.8983 144.808 21.9309 144.726 21.9309H143.759ZM140.686 19.3845C140.678 19.3926 140.678 19.4049 140.686 19.4212C140.703 19.4293 140.719 19.4334 140.735 19.4334H142.951C142.967 19.4334 142.98 19.4293 142.988 19.4212C143.004 19.4049 143.008 19.3926 143 19.3845L141.862 14.9527C141.853 14.9363 141.845 14.9282 141.837 14.9282C141.829 14.9282 141.821 14.9363 141.813 14.9527L140.686 19.3845ZM149.088 15.8219C149.088 15.7403 149.129 15.6995 149.211 15.6995H150.141C150.223 15.6995 150.264 15.7403 150.264 15.8219V21.8085C150.264 21.8901 150.223 21.9309 150.141 21.9309H149.211C149.129 21.9309 149.088 21.8901 149.088 21.8085V21.429C149.088 21.4126 149.08 21.4004 149.064 21.3922C149.056 21.3841 149.043 21.3882 149.027 21.4045C148.741 21.8126 148.293 22.0166 147.68 22.0166C147.125 22.0166 146.664 21.8534 146.297 21.5269C145.938 21.2004 145.758 20.7271 145.758 20.1068V15.8219C145.758 15.7403 145.799 15.6995 145.881 15.6995H146.799C146.881 15.6995 146.921 15.7403 146.921 15.8219V19.7885C146.921 20.1721 147.011 20.47 147.191 20.6822C147.378 20.8944 147.644 21.0005 147.986 21.0005C148.321 21.0005 148.586 20.8903 148.782 20.6699C148.986 20.4414 149.088 20.1353 149.088 19.7517V15.8219ZM154.516 16.483C154.516 16.5646 154.475 16.6054 154.394 16.6054H153.304C153.271 16.6054 153.255 16.6217 153.255 16.6544V20.0088C153.255 20.3435 153.32 20.5801 153.451 20.7189C153.59 20.8495 153.802 20.9148 154.088 20.9148H154.32C154.402 20.9148 154.443 20.9556 154.443 21.0372V21.8085C154.443 21.8901 154.402 21.9309 154.32 21.9309L153.843 21.9432C153.271 21.9432 152.839 21.837 152.545 21.6248C152.259 21.4045 152.116 21.0005 152.116 20.4128V16.6544C152.116 16.6217 152.1 16.6054 152.068 16.6054H151.468C151.386 16.6054 151.345 16.5646 151.345 16.483V15.8219C151.345 15.7403 151.386 15.6995 151.468 15.6995H152.068C152.1 15.6995 152.116 15.6831 152.116 15.6505V14.2426C152.116 14.161 152.157 14.1202 152.239 14.1202H153.133C153.214 14.1202 153.255 14.161 153.255 14.2426V15.6505C153.255 15.6831 153.271 15.6995 153.304 15.6995H154.394C154.475 15.6995 154.516 15.7403 154.516 15.8219V16.483ZM157.888 22.0288C157.251 22.0288 156.729 21.8656 156.321 21.5391C155.913 21.2045 155.668 20.7515 155.586 20.1802C155.521 19.7721 155.488 19.3151 155.488 18.8091C155.488 18.2949 155.521 17.8419 155.586 17.4501C155.668 16.887 155.913 16.4381 156.321 16.1035C156.729 15.7688 157.251 15.6015 157.888 15.6015C158.516 15.6015 159.034 15.7688 159.442 16.1035C159.851 16.4381 160.095 16.8829 160.177 17.4379C160.242 17.7888 160.275 18.2459 160.275 18.8091C160.275 19.3722 160.242 19.8293 160.177 20.1802C160.095 20.7515 159.851 21.2045 159.442 21.5391C159.043 21.8656 158.524 22.0288 157.888 22.0288ZM157.888 21.0127C158.19 21.0127 158.443 20.9189 158.647 20.7311C158.859 20.5434 158.99 20.2945 159.038 19.9843C159.079 19.6171 159.1 19.2253 159.1 18.8091C159.1 18.3847 159.079 17.997 159.038 17.646C158.99 17.3359 158.859 17.0869 158.647 16.8992C158.443 16.7115 158.186 16.6176 157.875 16.6176C157.573 16.6176 157.316 16.7115 157.104 16.8992C156.9 17.0869 156.774 17.3359 156.725 17.646C156.692 17.9317 156.676 18.3194 156.676 18.8091C156.676 19.3069 156.692 19.6987 156.725 19.9843C156.774 20.2945 156.9 20.5434 157.104 20.7311C157.316 20.9189 157.578 21.0127 157.888 21.0127ZM167.489 15.6138C168.06 15.6138 168.501 15.7974 168.811 16.1647C169.129 16.5319 169.288 17.0421 169.288 17.695V21.8085C169.288 21.8901 169.248 21.9309 169.166 21.9309H168.248C168.166 21.9309 168.125 21.8901 168.125 21.8085V17.8664C168.125 17.4828 168.031 17.1808 167.844 16.9604C167.664 16.7401 167.415 16.6299 167.097 16.6299C166.779 16.6299 166.522 16.7401 166.326 16.9604C166.138 17.1726 166.044 17.4665 166.044 17.8419V21.8085C166.044 21.8901 166.003 21.9309 165.922 21.9309H165.003C164.922 21.9309 164.881 21.8901 164.881 21.8085V17.8664C164.881 17.4828 164.787 17.1808 164.599 16.9604C164.412 16.7401 164.163 16.6299 163.853 16.6299C163.534 16.6299 163.277 16.7401 163.081 16.9604C162.894 17.1726 162.8 17.4665 162.8 17.8419V21.8085C162.8 21.8901 162.759 21.9309 162.677 21.9309H161.759C161.678 21.9309 161.637 21.8901 161.637 21.8085V15.8219C161.637 15.7403 161.678 15.6995 161.759 15.6995H162.677C162.759 15.6995 162.8 15.7403 162.8 15.8219V16.1892C162.8 16.2055 162.804 16.2177 162.812 16.2259C162.828 16.234 162.845 16.23 162.861 16.2136C163.196 15.8137 163.661 15.6138 164.257 15.6138C164.616 15.6138 164.926 15.6872 165.187 15.8341C165.448 15.981 165.648 16.1973 165.787 16.483C165.811 16.5156 165.836 16.5115 165.86 16.4707C166.04 16.1769 166.273 15.9606 166.558 15.8219C166.852 15.6831 167.162 15.6138 167.489 15.6138ZM172.865 15.6015C173.543 15.6015 174.086 15.7933 174.494 16.1769C174.902 16.5524 175.106 17.0461 175.106 17.6583V21.8085C175.106 21.8901 175.065 21.9309 174.983 21.9309H174.053C173.971 21.9309 173.931 21.8901 173.931 21.8085V21.4534C173.931 21.4371 173.922 21.429 173.906 21.429C173.898 21.4208 173.886 21.4249 173.869 21.4412C173.502 21.833 172.992 22.0288 172.339 22.0288C171.809 22.0288 171.356 21.886 170.98 21.6004C170.605 21.3065 170.417 20.8372 170.417 20.1925C170.417 19.5232 170.633 19.0172 171.066 18.6744C171.507 18.3234 172.102 18.148 172.853 18.148H173.882C173.914 18.148 173.931 18.1316 173.931 18.099V17.7562C173.931 17.4052 173.837 17.1278 173.649 16.9237C173.469 16.7197 173.208 16.6176 172.865 16.6176C172.596 16.6176 172.372 16.687 172.192 16.8258C172.021 16.9564 171.915 17.1359 171.874 17.3644C171.866 17.4379 171.821 17.4746 171.739 17.4746L170.735 17.4134C170.703 17.4134 170.674 17.4052 170.65 17.3889C170.625 17.3644 170.617 17.3359 170.625 17.3032C170.674 16.7972 170.903 16.3891 171.311 16.079C171.727 15.7607 172.245 15.6015 172.865 15.6015ZM172.596 21.025C172.955 21.025 173.265 20.9229 173.527 20.7189C173.796 20.5149 173.931 20.2414 173.931 19.8986V19.1151C173.931 19.0825 173.914 19.0662 173.882 19.0662H172.939C172.539 19.0662 172.217 19.1559 171.972 19.3355C171.735 19.515 171.617 19.7762 171.617 20.119C171.617 20.421 171.707 20.6495 171.886 20.8046C172.066 20.9515 172.302 21.025 172.596 21.025ZM179.204 16.483C179.204 16.5646 179.164 16.6054 179.082 16.6054H177.992C177.96 16.6054 177.943 16.6217 177.943 16.6544V20.0088C177.943 20.3435 178.009 20.5801 178.139 20.7189C178.278 20.8495 178.49 20.9148 178.776 20.9148H179.008C179.09 20.9148 179.131 20.9556 179.131 21.0372V21.8085C179.131 21.8901 179.09 21.9309 179.008 21.9309L178.531 21.9432C177.96 21.9432 177.527 21.837 177.233 21.6248C176.948 21.4045 176.805 21.0005 176.805 20.4128V16.6544C176.805 16.6217 176.788 16.6054 176.756 16.6054H176.156C176.074 16.6054 176.034 16.5646 176.034 16.483V15.8219C176.034 15.7403 176.074 15.6995 176.156 15.6995H176.756C176.788 15.6995 176.805 15.6831 176.805 15.6505V14.2426C176.805 14.161 176.846 14.1202 176.927 14.1202H177.821C177.903 14.1202 177.943 14.161 177.943 14.2426V15.6505C177.943 15.6831 177.96 15.6995 177.992 15.6995H179.082C179.164 15.6995 179.204 15.7403 179.204 15.8219V16.483ZM181.081 14.72C180.852 14.72 180.664 14.6466 180.518 14.4997C180.371 14.3528 180.297 14.1651 180.297 13.9365C180.297 13.6998 180.371 13.5121 180.518 13.3734C180.664 13.2265 180.852 13.153 181.081 13.153C181.309 13.153 181.497 13.2265 181.644 13.3734C181.791 13.5203 181.864 13.708 181.864 13.9365C181.864 14.1651 181.787 14.3528 181.632 14.4997C181.485 14.6466 181.301 14.72 181.081 14.72ZM180.603 21.9309C180.522 21.9309 180.481 21.8901 180.481 21.8085V15.8219C180.481 15.7403 180.522 15.6995 180.603 15.6995H181.534C181.615 15.6995 181.656 15.7403 181.656 15.8219V21.8085C181.656 21.8901 181.615 21.9309 181.534 21.9309H180.603ZM185.505 22.0288C184.869 22.0288 184.346 21.8656 183.938 21.5391C183.53 21.2045 183.285 20.7515 183.204 20.1802C183.138 19.7721 183.106 19.3151 183.106 18.8091C183.106 18.2949 183.138 17.8419 183.204 17.4501C183.285 16.887 183.53 16.4381 183.938 16.1035C184.346 15.7688 184.869 15.6015 185.505 15.6015C186.134 15.6015 186.652 15.7688 187.06 16.1035C187.468 16.4381 187.713 16.8829 187.795 17.4379C187.86 17.7888 187.892 18.2459 187.892 18.8091C187.892 19.3722 187.86 19.8293 187.795 20.1802C187.713 20.7515 187.468 21.2045 187.06 21.5391C186.66 21.8656 186.142 22.0288 185.505 22.0288ZM185.505 21.0127C185.807 21.0127 186.06 20.9189 186.264 20.7311C186.476 20.5434 186.607 20.2945 186.656 19.9843C186.697 19.6171 186.717 19.2253 186.717 18.8091C186.717 18.3847 186.697 17.997 186.656 17.646C186.607 17.3359 186.476 17.0869 186.264 16.8992C186.06 16.7115 185.803 16.6176 185.493 16.6176C185.191 16.6176 184.934 16.7115 184.722 16.8992C184.518 17.0869 184.391 17.3359 184.342 17.646C184.309 17.9317 184.293 18.3194 184.293 18.8091C184.293 19.3069 184.309 19.6987 184.342 19.9843C184.391 20.2945 184.518 20.5434 184.722 20.7311C184.934 20.9189 185.195 21.0127 185.505 21.0127ZM191.886 15.6138C192.482 15.6138 192.943 15.7974 193.27 16.1647C193.604 16.5319 193.772 17.038 193.772 17.6827V21.8085C193.772 21.8901 193.731 21.9309 193.649 21.9309H192.719C192.637 21.9309 192.596 21.8901 192.596 21.8085V17.8541C192.596 17.4787 192.499 17.1808 192.303 16.9604C192.115 16.7401 191.858 16.6299 191.531 16.6299C191.197 16.6299 190.927 16.7442 190.723 16.9727C190.527 17.193 190.43 17.4909 190.43 17.8664V21.8085C190.43 21.8901 190.389 21.9309 190.307 21.9309H189.377C189.295 21.9309 189.254 21.8901 189.254 21.8085V15.8219C189.254 15.7403 189.295 15.6995 189.377 15.6995H190.307C190.389 15.6995 190.43 15.7403 190.43 15.8219V16.2014C190.43 16.2259 190.434 16.2422 190.442 16.2504C190.458 16.2504 190.474 16.2381 190.491 16.2136C190.809 15.8137 191.274 15.6138 191.886 15.6138ZM200.205 22.0288C199.691 22.0288 199.234 21.9268 198.834 21.7228C198.442 21.5106 198.136 21.2168 197.916 20.8413C197.704 20.4577 197.598 20.017 197.598 19.5191V15.7607C197.598 15.0016 197.834 14.3977 198.308 13.9488C198.789 13.4917 199.422 13.2632 200.205 13.2632C200.989 13.2632 201.617 13.4876 202.091 13.9365C202.564 14.3854 202.801 14.9812 202.801 15.7239V15.8219C202.801 15.8627 202.788 15.8953 202.764 15.9198C202.739 15.9443 202.711 15.9565 202.678 15.9565L201.748 16.0055C201.666 16.0055 201.625 15.9647 201.625 15.8831V15.6995C201.625 15.275 201.495 14.9323 201.234 14.6711C200.972 14.4099 200.63 14.2793 200.205 14.2793C199.781 14.2793 199.434 14.4099 199.165 14.6711C198.903 14.9323 198.773 15.275 198.773 15.6995V19.5926C198.773 20.017 198.903 20.3598 199.165 20.621C199.434 20.8821 199.781 21.0127 200.205 21.0127C200.63 21.0127 200.972 20.8821 201.234 20.621C201.495 20.3598 201.625 20.017 201.625 19.5926V19.4212C201.625 19.3396 201.666 19.2988 201.748 19.2988L202.678 19.3477C202.76 19.3477 202.801 19.3885 202.801 19.4702V19.5559C202.801 20.0456 202.69 20.4781 202.47 20.8536C202.258 21.229 201.956 21.5187 201.564 21.7228C201.172 21.9268 200.719 22.0288 200.205 22.0288ZM204.261 21.9309C204.179 21.9309 204.138 21.8901 204.138 21.8085V13.4836C204.138 13.4019 204.179 13.3611 204.261 13.3611H205.191C205.273 13.3611 205.314 13.4019 205.314 13.4836V21.8085C205.314 21.8901 205.273 21.9309 205.191 21.9309H204.261ZM209.022 22.0288C208.385 22.0288 207.863 21.8656 207.455 21.5391C207.047 21.2045 206.802 20.7515 206.72 20.1802C206.655 19.7721 206.622 19.3151 206.622 18.8091C206.622 18.2949 206.655 17.8419 206.72 17.4501C206.802 16.887 207.047 16.4381 207.455 16.1035C207.863 15.7688 208.385 15.6015 209.022 15.6015C209.65 15.6015 210.169 15.7688 210.577 16.1035C210.985 16.4381 211.23 16.8829 211.311 17.4379C211.376 17.7888 211.409 18.2459 211.409 18.8091C211.409 19.3722 211.376 19.8293 211.311 20.1802C211.23 20.7515 210.985 21.2045 210.577 21.5391C210.177 21.8656 209.658 22.0288 209.022 22.0288ZM209.022 21.0127C209.324 21.0127 209.577 20.9189 209.781 20.7311C209.993 20.5434 210.124 20.2945 210.173 19.9843C210.213 19.6171 210.234 19.2253 210.234 18.8091C210.234 18.3847 210.213 17.997 210.173 17.646C210.124 17.3359 209.993 17.0869 209.781 16.8992C209.577 16.7115 209.32 16.6176 209.01 16.6176C208.708 16.6176 208.451 16.7115 208.238 16.8992C208.034 17.0869 207.908 17.3359 207.859 17.646C207.826 17.9317 207.81 18.3194 207.81 18.8091C207.81 19.3069 207.826 19.6987 207.859 19.9843C207.908 20.2945 208.034 20.5434 208.238 20.7311C208.451 20.9189 208.712 21.0127 209.022 21.0127ZM216.04 15.8219C216.04 15.7403 216.08 15.6995 216.162 15.6995H217.093C217.174 15.6995 217.215 15.7403 217.215 15.8219V21.8085C217.215 21.8901 217.174 21.9309 217.093 21.9309H216.162C216.08 21.9309 216.04 21.8901 216.04 21.8085V21.429C216.04 21.4126 216.032 21.4004 216.015 21.3922C216.007 21.3841 215.995 21.3882 215.978 21.4045C215.693 21.8126 215.244 22.0166 214.632 22.0166C214.077 22.0166 213.616 21.8534 213.248 21.5269C212.889 21.2004 212.71 20.7271 212.71 20.1068V15.8219C212.71 15.7403 212.751 15.6995 212.832 15.6995H213.75C213.832 15.6995 213.873 15.7403 213.873 15.8219V19.7885C213.873 20.1721 213.963 20.47 214.142 20.6822C214.33 20.8944 214.595 21.0005 214.938 21.0005C215.272 21.0005 215.538 20.8903 215.734 20.6699C215.938 20.4414 216.04 20.1353 216.04 19.7517V15.8219ZM222.055 13.4836C222.055 13.4019 222.096 13.3611 222.177 13.3611H223.108C223.19 13.3611 223.23 13.4019 223.23 13.4836V21.8085C223.23 21.8901 223.19 21.9309 223.108 21.9309H222.177C222.096 21.9309 222.055 21.8901 222.055 21.8085V21.3922C222.055 21.3759 222.047 21.3637 222.031 21.3555C222.014 21.3473 222.002 21.3514 221.994 21.3678C221.7 21.8085 221.239 22.0288 220.61 22.0288C220.104 22.0288 219.696 21.8819 219.386 21.5881C219.076 21.2943 218.848 20.8413 218.701 20.2292C218.603 19.8048 218.554 19.3396 218.554 18.8335C218.554 18.3112 218.595 17.846 218.676 17.4379C218.921 16.2136 219.586 15.6015 220.672 15.6015C220.99 15.6015 221.255 15.6546 221.467 15.7607C221.68 15.8668 221.855 16.0259 221.994 16.2381C222.01 16.2544 222.022 16.2626 222.031 16.2626C222.047 16.2626 222.055 16.2504 222.055 16.2259V13.4836ZM221.884 20.1925C221.99 19.866 222.043 19.4049 222.043 18.8091C222.043 18.1969 221.986 17.7317 221.871 17.4134C221.798 17.1522 221.684 16.9564 221.529 16.8258C221.382 16.687 221.186 16.6176 220.941 16.6176C220.459 16.6176 220.125 16.8747 219.937 17.3889C219.807 17.7562 219.741 18.2296 219.741 18.8091C219.741 19.3967 219.794 19.8497 219.9 20.168C220.072 20.7311 220.415 21.0127 220.929 21.0127C221.402 21.0127 221.72 20.7393 221.884 20.1925Z" fill="#2a3c4f"/>
<path d="M74.9251 53.3801C74.6782 53.3801 74.5548 53.2567 74.5548 53.0098V27.8252C74.5548 27.5783 74.6782 27.4548 74.9251 27.4548H82.4435C84.7397 27.4548 86.5668 28.1091 87.9248 29.4177C89.3075 30.7264 89.9989 32.4671 89.9989 34.6398V46.1951C89.9989 48.3679 89.3075 50.1086 87.9248 51.4172C86.5668 52.7258 84.7397 53.3801 82.4435 53.3801H74.9251ZM78.1103 50.158C78.1103 50.2567 78.1596 50.3061 78.2584 50.3061L82.5176 50.2691C83.7027 50.2691 84.641 49.874 85.3323 49.0839C86.0483 48.2691 86.4187 47.1827 86.4434 45.8248V35.0102C86.4434 33.6275 86.0854 32.5411 85.3693 31.751C84.6533 30.9362 83.6904 30.5288 82.4805 30.5288H78.2584C78.1596 30.5288 78.1103 30.5782 78.1103 30.677V50.158ZM100.702 34.2324C102.751 34.2324 104.393 34.8127 105.628 35.9731C106.862 37.1089 107.48 38.6027 107.48 40.4545V53.0098C107.48 53.2567 107.356 53.3801 107.109 53.3801H104.295C104.048 53.3801 103.924 53.2567 103.924 53.0098V51.9357C103.924 51.8863 103.899 51.8616 103.85 51.8616C103.825 51.837 103.788 51.8493 103.739 51.8987C102.628 53.0838 101.085 53.6764 99.1095 53.6764C97.5046 53.6764 96.1342 53.2443 94.9984 52.3802C93.8627 51.4913 93.2948 50.0716 93.2948 48.121C93.2948 46.0964 93.9491 44.5655 95.2577 43.5285C96.591 42.4668 98.3934 41.936 100.665 41.936H103.776C103.875 41.936 103.924 41.8866 103.924 41.7878V40.7508C103.924 39.6891 103.64 38.8496 103.072 38.2323C102.529 37.6151 101.739 37.3064 100.702 37.3064C99.8872 37.3064 99.2082 37.5163 98.665 37.9361C98.1465 38.3311 97.8255 38.8743 97.7021 39.5656C97.6774 39.7879 97.5416 39.899 97.2947 39.899L94.2577 39.7138C94.159 39.7138 94.0725 39.6891 93.9985 39.6397C93.9244 39.5656 93.8997 39.4792 93.9244 39.3805C94.0725 37.8496 94.7639 36.6151 95.9984 35.6769C97.2576 34.7139 98.8255 34.2324 100.702 34.2324ZM99.8872 50.6395C100.974 50.6395 101.912 50.3308 102.702 49.7135C103.517 49.0963 103.924 48.2691 103.924 47.2321V44.8618C103.924 44.7631 103.875 44.7137 103.776 44.7137H100.924C99.7144 44.7137 98.7391 44.9853 97.9984 45.5285C97.2823 46.0717 96.9243 46.8618 96.9243 47.8988C96.9243 48.8123 97.1959 49.5037 97.7391 49.9728C98.2823 50.4172 98.9983 50.6395 99.8872 50.6395ZM117.654 53.6023C115.629 53.6023 113.999 53.1332 112.765 52.195C111.555 51.2567 110.95 50.0469 110.95 48.5654V48.1951C110.95 47.9482 111.073 47.8247 111.32 47.8247H113.95C114.197 47.8247 114.32 47.9482 114.32 48.1951V48.4173C114.32 49.0839 114.641 49.6642 115.283 50.158C115.925 50.6518 116.715 50.8987 117.654 50.8987C118.592 50.8987 119.345 50.6641 119.913 50.195C120.505 49.7259 120.802 49.1457 120.802 48.4543C120.802 47.9111 120.629 47.4667 120.283 47.121C119.962 46.7753 119.555 46.5038 119.061 46.3062C118.592 46.084 117.888 45.8124 116.95 45.4914C115.789 45.1211 114.802 44.7384 113.987 44.3433C113.197 43.9236 112.518 43.3433 111.95 42.6026C111.382 41.8372 111.098 40.8743 111.098 39.7138C111.098 38.0595 111.678 36.7509 112.839 35.788C114.024 34.825 115.592 34.3436 117.542 34.3436C119.518 34.3436 121.098 34.8374 122.283 35.825C123.493 36.8126 124.098 38.1089 124.098 39.7138V39.7879C124.098 40.0348 123.974 40.1582 123.727 40.1582H121.135C120.888 40.1582 120.765 40.0348 120.765 39.7879V39.6397C120.765 38.9237 120.468 38.3311 119.876 37.862C119.283 37.3929 118.505 37.1583 117.542 37.1583C116.629 37.1583 115.888 37.3805 115.32 37.8249C114.777 38.2694 114.505 38.8373 114.505 39.5286C114.505 40.0471 114.666 40.4792 114.987 40.8249C115.308 41.1459 115.703 41.4175 116.172 41.6397C116.666 41.8619 117.382 42.1335 118.32 42.4545C119.555 42.8742 120.567 43.2816 121.357 43.6767C122.172 44.0717 122.876 44.6396 123.468 45.3803C124.061 46.121 124.357 47.0716 124.357 48.2321C124.357 49.8864 123.752 51.195 122.542 52.1579C121.332 53.1209 119.703 53.6023 117.654 53.6023ZM135.784 34.2695C137.586 34.2695 138.981 34.825 139.969 35.9361C140.981 37.0472 141.487 38.578 141.487 40.5286V53.0098C141.487 53.2567 141.364 53.3801 141.117 53.3801H138.302C138.055 53.3801 137.932 53.2567 137.932 53.0098V41.0471C137.932 39.9113 137.635 39.0101 137.043 38.3435C136.475 37.6768 135.697 37.3435 134.71 37.3435C133.697 37.3435 132.882 37.6891 132.265 38.3805C131.673 39.0471 131.376 39.9484 131.376 41.0841V53.0098C131.376 53.2567 131.253 53.3801 131.006 53.3801H128.191C127.944 53.3801 127.821 53.2567 127.821 53.0098V27.8252C127.821 27.5783 127.944 27.4548 128.191 27.4548H131.006C131.253 27.4548 131.376 27.5783 131.376 27.8252V36.0472C131.376 36.1213 131.389 36.1707 131.413 36.1954C131.463 36.1954 131.512 36.1583 131.561 36.0843C132.524 34.8744 133.932 34.2695 135.784 34.2695ZM159.61 39.7879C159.857 41.0224 159.98 42.4298 159.98 44.01C159.98 45.5408 159.832 46.9482 159.536 48.2321C159.116 50.0839 158.437 51.4542 157.499 52.3431C156.561 53.232 155.314 53.6764 153.758 53.6764C151.882 53.6764 150.499 53.0221 149.61 51.7135C149.586 51.6641 149.549 51.6518 149.499 51.6765C149.45 51.7012 149.425 51.7382 149.425 51.7876V53.0098C149.425 53.2567 149.302 53.3801 149.055 53.3801H146.24C145.993 53.3801 145.87 53.2567 145.87 53.0098V27.8252C145.87 27.5783 145.993 27.4548 146.24 27.4548H149.055C149.302 27.4548 149.425 27.5783 149.425 27.8252V36.0843C149.425 36.1583 149.437 36.1954 149.462 36.1954C149.511 36.1954 149.561 36.1707 149.61 36.1213C150.425 34.8621 151.758 34.2324 153.61 34.2324C156.869 34.2324 158.869 36.0843 159.61 39.7879ZM155.943 48.0469C156.24 47.0593 156.388 45.689 156.388 43.9359C156.388 42.1088 156.203 40.6767 155.832 39.6397C155.24 38.0842 154.227 37.3064 152.795 37.3064C152.055 37.3064 151.45 37.5163 150.981 37.9361C150.536 38.3311 150.19 38.9237 149.944 39.7138C149.623 40.7014 149.462 42.1088 149.462 43.9359C149.462 45.7136 149.61 47.1087 149.907 48.121C150.425 49.7753 151.4 50.6024 152.832 50.6024C154.388 50.6024 155.425 49.7506 155.943 48.0469ZM170.767 53.6764C168.842 53.6764 167.261 53.1826 166.027 52.195C164.792 51.1826 164.052 49.8123 163.805 48.084C163.607 46.8494 163.508 45.4667 163.508 43.9359C163.508 42.3804 163.607 41.0101 163.805 39.8249C164.052 38.1212 164.792 36.7632 166.027 35.7509C167.261 34.7386 168.842 34.2324 170.767 34.2324C172.669 34.2324 174.236 34.7386 175.471 35.7509C176.706 36.7632 177.446 38.1089 177.693 39.7879C177.891 40.8496 177.989 42.2322 177.989 43.9359C177.989 45.6396 177.891 47.0223 177.693 48.084C177.446 49.8123 176.706 51.1826 175.471 52.195C174.261 53.1826 172.693 53.6764 170.767 53.6764ZM170.767 50.6024C171.681 50.6024 172.446 50.3185 173.064 49.7506C173.706 49.1827 174.101 48.4296 174.249 47.4914C174.372 46.3803 174.434 45.1951 174.434 43.9359C174.434 42.652 174.372 41.4792 174.249 40.4175C174.101 39.4792 173.706 38.7262 173.064 38.1583C172.446 37.5904 171.669 37.3064 170.73 37.3064C169.817 37.3064 169.039 37.5904 168.397 38.1583C167.78 38.7262 167.397 39.4792 167.249 40.4175C167.15 41.2817 167.101 42.4545 167.101 43.9359C167.101 45.442 167.15 46.6272 167.249 47.4914C167.397 48.4296 167.78 49.1827 168.397 49.7506C169.039 50.3185 169.829 50.6024 170.767 50.6024ZM188.59 34.2324C190.64 34.2324 192.282 34.8127 193.516 35.9731C194.751 37.1089 195.368 38.6027 195.368 40.4545V53.0098C195.368 53.2567 195.245 53.3801 194.998 53.3801H192.183C191.936 53.3801 191.813 53.2567 191.813 53.0098V51.9357C191.813 51.8863 191.788 51.8616 191.739 51.8616C191.714 51.837 191.677 51.8493 191.627 51.8987C190.516 53.0838 188.973 53.6764 186.998 53.6764C185.393 53.6764 184.023 53.2443 182.887 52.3802C181.751 51.4913 181.183 50.0716 181.183 48.121C181.183 46.0964 181.838 44.5655 183.146 43.5285C184.479 42.4668 186.282 41.936 188.553 41.936H191.664C191.763 41.936 191.813 41.8866 191.813 41.7878V40.7508C191.813 39.6891 191.529 38.8496 190.961 38.2323C190.418 37.6151 189.628 37.3064 188.59 37.3064C187.776 37.3064 187.097 37.5163 186.554 37.9361C186.035 38.3311 185.714 38.8743 185.591 39.5656C185.566 39.7879 185.43 39.899 185.183 39.899L182.146 39.7138C182.047 39.7138 181.961 39.6891 181.887 39.6397C181.813 39.5656 181.788 39.4792 181.813 39.3805C181.961 37.8496 182.652 36.6151 183.887 35.6769C185.146 34.7139 186.714 34.2324 188.59 34.2324ZM187.776 50.6395C188.862 50.6395 189.8 50.3308 190.59 49.7135C191.405 49.0963 191.813 48.2691 191.813 47.2321V44.8618C191.813 44.7631 191.763 44.7137 191.664 44.7137H188.813C187.603 44.7137 186.628 44.9853 185.887 45.5285C185.171 46.0717 184.813 46.8618 184.813 47.8988C184.813 48.8123 185.084 49.5037 185.628 49.9728C186.171 50.4172 186.887 50.6395 187.776 50.6395ZM207.357 34.3436C208.098 34.3436 208.727 34.4917 209.246 34.788C209.418 34.8621 209.48 35.0102 209.431 35.2324L208.875 38.0472C208.851 38.2941 208.702 38.3681 208.431 38.2694C208.061 38.1459 207.653 38.0842 207.209 38.0842C206.888 38.0842 206.653 38.0965 206.505 38.1212C205.542 38.1953 204.74 38.6397 204.098 39.4545C203.456 40.2446 203.135 41.1952 203.135 42.3063V53.0098C203.135 53.2567 203.011 53.3801 202.764 53.3801H199.95C199.703 53.3801 199.579 53.2567 199.579 53.0098V34.8991C199.579 34.6522 199.703 34.5287 199.95 34.5287H202.764C203.011 34.5287 203.135 34.6522 203.135 34.8991V37.2694C203.135 37.3435 203.147 37.3929 203.172 37.4176C203.221 37.4176 203.258 37.3929 203.283 37.3435C204.172 35.3435 205.53 34.3436 207.357 34.3436ZM222.023 27.8252C222.023 27.5783 222.146 27.4548 222.393 27.4548H225.208C225.455 27.4548 225.578 27.5783 225.578 27.8252V53.0098C225.578 53.2567 225.455 53.3801 225.208 53.3801H222.393C222.146 53.3801 222.023 53.2567 222.023 53.0098V51.7505C222.023 51.7012 221.998 51.6641 221.948 51.6394C221.899 51.6147 221.862 51.6271 221.837 51.6765C220.949 53.0098 219.553 53.6764 217.652 53.6764C216.121 53.6764 214.887 53.232 213.949 52.3431C213.01 51.4542 212.319 50.0839 211.875 48.2321C211.578 46.9482 211.43 45.5408 211.43 44.01C211.43 42.4298 211.554 41.0224 211.801 39.7879C212.541 36.0843 214.554 34.2324 217.837 34.2324C218.8 34.2324 219.603 34.3929 220.245 34.7139C220.887 35.0349 221.418 35.5164 221.837 36.1583C221.887 36.2077 221.924 36.2324 221.948 36.2324C221.998 36.2324 222.023 36.1954 222.023 36.1213V27.8252ZM221.504 48.121C221.825 47.1334 221.986 45.7383 221.986 43.9359C221.986 42.0841 221.813 40.6767 221.467 39.7138C221.245 38.9237 220.899 38.3311 220.43 37.9361C219.986 37.5163 219.393 37.3064 218.652 37.3064C217.196 37.3064 216.183 38.0842 215.615 39.6397C215.22 40.7508 215.023 42.1829 215.023 43.9359C215.023 45.7136 215.183 47.084 215.504 48.0469C216.023 49.7506 217.06 50.6024 218.615 50.6024C220.047 50.6024 221.01 49.7753 221.504 48.121Z" fill="#2a3c4f"/>
<path d="M22.974 36.5927C20.0984 37.3554 18.3801 40.3099 19.1516 43.1942C19.9143 46.0697 22.8688 47.788 25.7531 47.0165C28.6373 46.245 30.3469 43.2994 29.5754 40.4151C28.8127 37.5395 25.8495 35.83 22.974 36.5927Z" fill="#2a3c4f"/>
<path d="M6.18557 23.7318C11.6648 13.4483 22.4919 6.43486 34.932 6.43486C47.2407 6.43486 57.9801 13.3081 63.5119 23.4162L64.9059 22.6097L68.1759 20.7248C68.5616 20.5056 68.6931 20.0147 68.474 19.629C68.2548 19.2432 67.7639 19.1117 67.3781 19.3309L64.1081 21.2158C62.8018 19.0854 61.2676 17.1129 59.5406 15.3244L60.6803 14.1847C60.9959 13.8691 60.9959 13.3607 60.6803 13.0451C60.3647 12.7295 59.8562 12.7295 59.5406 13.0451L58.3921 14.1935C56.5861 12.484 54.6048 10.9673 52.4657 9.68736L54.3857 6.35596C54.6048 5.97022 54.4733 5.47928 54.0876 5.2601C53.7018 5.04093 53.2109 5.17244 52.9917 5.55818L51.063 8.89834C48.8976 7.73235 46.5832 6.80307 44.1723 6.11925L44.6194 4.44479C44.7334 4.01521 44.4791 3.57687 44.0496 3.4629C43.62 3.34017 43.1816 3.60317 43.0677 4.03275L42.6206 5.71598C40.2535 5.17244 37.79 4.8656 35.2652 4.8393V0.806549C35.2652 0.359441 34.9057 0 34.4674 0C34.0203 0 33.6608 0.359441 33.6608 0.806549V4.8656C31.1535 4.96203 28.7076 5.31271 26.3668 5.91762L25.8584 4.02398C25.7444 3.5944 25.306 3.34017 24.8765 3.45414C24.4469 3.5681 24.1927 4.00645 24.3066 4.43602L24.8239 6.35596C22.4568 7.09237 20.2125 8.08303 18.0997 9.28408L15.9431 5.54941C15.7151 5.17244 15.2242 5.04093 14.8384 5.2601C14.4527 5.47928 14.3212 5.97022 14.5404 6.35596L16.7145 10.1169C14.6456 11.4232 12.7344 12.9399 10.9986 14.6494L9.39423 13.0451C9.07862 12.7295 8.57015 12.7295 8.25454 13.0451C7.93893 13.3607 7.93893 13.8691 8.25454 14.1847L9.87641 15.8066C8.22824 17.5863 6.77294 19.5325 5.52805 21.6278L1.55667 19.3396C1.17093 19.1205 0.679989 19.252 0.460818 19.6377C0.311782 19.9007 0.329316 20.2163 0.478352 20.453L6.18557 23.7318Z" fill="#2a3c4f"/>
<path d="M44.1107 30.9643C41.2352 31.727 39.5169 34.6814 40.2883 37.5657C41.0511 40.4413 44.0055 42.1596 46.8898 41.3881C49.7653 40.6254 51.4836 37.6709 50.7121 34.7867C49.9494 31.9111 46.995 30.2016 44.1107 30.9643ZM46.4777 39.8714C44.4438 40.415 42.3485 39.2051 41.8138 37.1625C41.2702 35.1286 42.48 33.0333 44.5227 32.4985C46.5566 31.955 48.6519 33.1648 49.1867 35.2075C49.7215 37.2501 48.5204 39.3279 46.4777 39.8714Z" fill="#2a3c4f"/>
<path d="M61.513 30.0703L43.953 12.449C43.05 11.546 41.7262 11.1865 40.4901 11.5109L16.4514 17.9107C15.2153 18.2438 14.2422 19.2082 13.909 20.4443L7.43034 44.4655C7.0972 45.7016 7.44787 47.0254 8.35085 47.9284L25.9108 65.5497C26.8138 66.4527 28.1376 66.8121 29.3737 66.4878L53.4124 60.088C54.6485 59.7548 55.6217 58.7905 55.9548 57.5544L62.4335 33.5332C62.7666 32.2971 62.416 30.9733 61.513 30.0703ZM29.0581 16.92L33.9062 21.3999L27.0768 23.2146L29.0581 16.92ZM26.9278 51.4351C21.6063 52.8466 16.1446 49.6817 14.7331 44.369C13.3217 39.0476 16.4865 33.5858 21.7992 32.1743C27.1207 30.7629 32.5824 33.9277 33.9939 39.2404C35.4053 44.5619 32.2405 50.0236 26.9278 51.4351ZM48.0646 45.8156C42.7432 47.227 37.2814 44.0622 35.87 38.7495C34.4585 33.428 37.6233 27.9663 42.936 26.5548C48.2575 25.1433 53.7193 28.3082 55.1307 33.6209C56.5509 38.9423 53.3861 44.3953 48.0646 45.8156Z" fill="#2a3c4f"/>
</svg>