
<svg width="239" height="72" viewBox="0 0 239 72" fill="none" xmlns="http://www.w3.org/2000/svg">
<g clip-path="url(#clip0)">
<path d="M19.9932 25.3796C16.1735 25.3796 13.0764 28.5018 13.0764 32.3524C13.0764 36.203 16.1735 39.3251 19.9932 39.3251C23.8129 39.3251 26.91 36.203 26.91 32.3524C26.91 28.5018 23.8129 25.3796 19.9932 25.3796ZM19.9932 36.1249C17.9285 36.1249 16.2509 34.4338 16.2509 32.3524C16.2509 30.271 17.9285 28.5798 19.9932 28.5798C22.0579 28.5798 23.7355 30.271 23.7355 32.3524C23.7355 34.4338 22.0579 36.1249 19.9932 36.1249Z" fill="#2a3c4f"/>
<path d="M32.5188 32.3528C32.5188 33.8271 33.706 35.0239 35.1685 35.0239C36.631 35.0239 37.8182 33.8271 37.8182 32.3528C37.8182 30.8785 36.631 29.6816 35.1685 29.6816C33.706 29.6816 32.5188 30.8785 32.5188 32.3528Z" fill="#2a3c4f"/>
<path d="M52.9255 59.0464C51.5232 57.6674 50.8177 55.0657 50.4564 52.9322C50.1037 50.6253 50.0177 48.3011 50.0349 45.9681C50.0607 43.0975 50.2586 40.2442 50.5769 37.3996C50.7231 36.0467 50.9296 34.7025 51.093 33.3496C51.1963 32.4476 51.3425 31.537 51.3339 30.635C51.3081 26.7931 50.9468 22.9772 50.0951 19.2219C49.3466 15.9264 48.1938 12.7782 46.413 9.89894C44.6752 7.08903 42.4384 4.7908 39.5651 3.14302C36.6056 1.44319 33.4139 0.6193 30.0243 0.593282C29.4049 0.58461 28.7855 0.662663 28.1747 0.662663C27.3746 0.662663 26.5745 0.6193 25.7745 0.58461C24.1055 0.523902 22.4537 0.688681 20.8192 1.04426C17.9027 1.66868 15.2702 2.90886 12.9474 4.7908C10.1084 7.09771 8.12976 10.0377 6.69306 13.3853C5.25636 16.7329 4.46489 20.254 4.01754 23.8618C3.72503 26.186 3.60459 28.5276 3.55297 30.8692C3.54437 31.1641 3.53577 31.4676 3.57018 31.7538C3.78526 33.3842 4.05195 35.006 4.24121 36.6451C4.60254 39.7239 4.83482 42.8113 4.86063 45.9161C4.86923 47.1303 4.85202 48.3531 4.7918 49.5586L4.7832 49.5499C4.7832 49.5499 4.7746 49.758 4.75739 50.1049C4.74879 50.2957 4.73158 50.4779 4.71438 50.6687C4.53371 52.7327 3.94011 57.0864 1.96142 59.029C-0.671088 61.6221 0.01715 62.2552 0.645168 62.2552C1.16995 62.2552 5.73813 60.5901 7.24365 60.035C11.3301 66.7476 18.8491 71.2573 27.4693 71.2573C36.0894 71.2573 43.5998 66.7563 47.6863 60.0524C49.2348 60.6248 53.717 62.2552 54.2417 62.2552C54.8698 62.2639 55.558 61.6395 52.9255 59.0464ZM38.9112 32.3522C38.9112 34.4336 37.2336 36.1248 35.1689 36.1248C33.1042 36.1248 31.4266 34.4336 31.4266 32.3522C31.4266 30.2708 33.1042 28.5796 35.1689 28.5796C37.2422 28.5796 38.9112 30.2621 38.9112 32.3522ZM42.189 60.486C40.9759 61.9343 39.479 63.0357 37.8617 63.981C35.3926 65.4207 32.7515 66.3573 29.9211 66.7389C26.8671 67.1465 23.8904 66.7996 20.9826 65.7936C18.3071 64.8656 15.8638 63.5214 13.7647 61.5961C13.0765 60.963 12.414 60.2952 12.0269 59.4106C12.0097 59.3759 11.9925 59.3326 11.9753 59.2979C11.6828 58.578 11.6914 58.578 12.3796 58.2572C13.6959 57.6501 14.8573 56.8262 15.5025 55.4733C15.7692 54.9095 15.8896 54.2678 16.0875 53.6173C16.1908 53.7127 16.3284 53.8515 16.466 53.9816C18.3501 55.7681 20.4406 57.2425 22.8925 58.1531C26.6348 59.5494 30.2738 59.2198 33.8183 57.4246C35.6421 56.4966 37.2509 55.2651 38.7306 53.8515C38.808 53.7821 38.8768 53.7127 38.9542 53.6434C38.9714 53.6347 38.9887 53.626 39.0145 53.6173C39.1005 54.0336 39.1521 54.4672 39.2812 54.8662C39.7199 56.2365 40.692 57.1557 41.8879 57.8582C42.1976 58.0403 42.5331 58.1964 42.8686 58.3439C43.0493 58.4219 43.1267 58.5 43.0751 58.7341C42.9374 59.4106 42.6191 59.9743 42.189 60.486ZM46.8432 34.5637C46.6711 35.7865 46.3614 36.966 45.7334 38.0414C45.5613 38.3363 45.3463 38.6225 45.1054 38.8653C44.6494 39.3336 44.3139 39.377 43.7031 39.0821C43.5482 39.5158 43.402 39.9407 43.2385 40.3657C41.5351 44.8234 39.1349 48.8041 35.4614 51.9002C33.9301 53.1924 32.2181 54.1724 30.2738 54.6927C27.736 55.3779 25.2841 55.1003 22.9183 53.9989C20.7331 52.9842 18.9179 51.4752 17.3349 49.68C14.668 46.6619 12.784 43.1842 11.5021 39.3683C11.4763 39.2989 11.4505 39.2296 11.4247 39.1688C11.4161 39.1428 11.3903 39.1255 11.3731 39.0995C10.659 39.3683 10.2891 39.2729 9.76433 38.6398C9.18793 37.9373 8.84381 37.1048 8.59432 36.2288C8.18138 34.7979 8.00072 33.3409 8.28461 31.8665C8.36204 31.4676 8.5169 31.06 8.72337 30.7044C9.03307 30.1754 9.45462 30.0973 9.99661 30.3835C10.0396 30.4096 10.0826 30.4269 10.1687 30.4616C10.2461 29.9759 10.3149 29.5076 10.4096 29.0393C10.8483 26.7758 11.5451 24.6076 12.8872 22.6996C14.04 21.0605 15.5455 19.9158 17.5586 19.6122C18.178 19.5168 18.8147 19.5602 19.4427 19.5602C19.5459 19.5602 19.6491 19.6296 19.7524 19.6816C23.8904 21.8237 28.0199 23.9745 32.1579 26.1166C29.8695 27.2527 28.2693 29.603 28.2693 32.3522C28.2693 36.2028 31.3664 39.325 35.1861 39.325C39.0059 39.325 42.1029 36.2028 42.1029 32.3522C42.1029 31.9619 42.0513 31.589 41.9911 31.2161C42.2922 31.3722 42.5933 31.5283 42.8858 31.6844C43.0923 31.7885 43.316 31.8839 43.5052 32.0053C43.7203 32.1441 43.8579 32.092 44.03 31.9186C44.529 31.4156 45.0624 30.9299 45.5613 30.4182C45.7764 30.2014 45.9399 30.2361 46.1377 30.4009C46.5077 30.7131 46.6625 31.1467 46.7743 31.5977C46.998 32.5864 46.9808 33.575 46.8432 34.5637Z" fill="#2a3c4f"/>
<path d="M163.886 16.4725L163.525 15.0676C163.517 15.0416 163.499 15.0329 163.465 15.0329H160.807C160.764 15.0329 160.746 15.0416 160.746 15.0676L160.394 16.4725C160.385 16.5419 160.342 16.5853 160.265 16.5853H159.327C159.284 16.5853 159.258 16.5766 159.232 16.5506C159.206 16.5246 159.207 16.4986 159.215 16.4552L161.435 8.21626C161.452 8.14688 161.495 8.10352 161.564 8.10352H162.691C162.76 8.10352 162.803 8.13821 162.82 8.21626L165.056 16.4552L165.065 16.4899C165.065 16.5506 165.022 16.5853 164.945 16.5853H163.998C163.947 16.5853 163.904 16.5506 163.886 16.4725ZM161.013 14.0963C161.022 14.1049 161.039 14.1136 161.056 14.1136H163.233C163.25 14.1136 163.258 14.1049 163.276 14.0963C163.284 14.0876 163.293 14.0702 163.284 14.0616L162.166 9.67325C162.157 9.6559 162.149 9.64723 162.14 9.64723C162.131 9.64723 162.123 9.6559 162.114 9.67325L161.005 14.0616C160.996 14.0702 160.996 14.0876 161.013 14.0963Z" fill="#2a3c4f"/>
<path d="M169.126 10.4194H170.038C170.115 10.4194 170.158 10.4628 170.158 10.5408V16.4642C170.158 16.5423 170.115 16.5856 170.038 16.5856H169.126C169.048 16.5856 169.005 16.5423 169.005 16.4642V16.0913C169.005 16.0739 168.997 16.0653 168.988 16.0566C168.979 16.0479 168.962 16.0566 168.945 16.0653C168.661 16.4729 168.222 16.6724 167.62 16.6724C167.078 16.6724 166.622 16.5076 166.269 16.1867C165.917 15.8658 165.736 15.3975 165.736 14.7817V10.5408C165.736 10.4628 165.779 10.4194 165.857 10.4194H166.76C166.837 10.4194 166.88 10.4628 166.88 10.5408V14.4608C166.88 14.8424 166.975 15.1373 167.147 15.3455C167.328 15.5536 167.586 15.6577 167.921 15.6577C168.248 15.6577 168.515 15.5449 168.713 15.3281C168.911 15.1026 169.005 14.8078 169.005 14.4262V10.5408C169.005 10.4628 169.048 10.4194 169.126 10.4194Z" fill="#2a3c4f"/>
<path d="M173.969 11.3127H172.902C172.868 11.3127 172.851 11.3301 172.851 11.3648V14.6864C172.851 15.0159 172.92 15.2501 173.049 15.3802C173.178 15.5103 173.384 15.5796 173.668 15.5796H173.9C173.978 15.5796 174.021 15.623 174.021 15.7011V16.4642C174.021 16.5423 173.978 16.5857 173.9 16.5857L173.436 16.5943C172.877 16.5943 172.455 16.4903 172.171 16.2734C171.887 16.0566 171.741 15.6577 171.741 15.0766V11.3561C171.741 11.3214 171.724 11.3041 171.689 11.3041H171.104C171.027 11.3041 170.984 11.2607 170.984 11.1826V10.5322C170.984 10.4541 171.027 10.4108 171.104 10.4108H171.689C171.724 10.4108 171.741 10.3934 171.741 10.3588V8.97981C171.741 8.90176 171.784 8.8584 171.861 8.8584H172.739C172.816 8.8584 172.859 8.90176 172.859 8.97981V10.3761C172.859 10.4108 172.877 10.4281 172.911 10.4281H173.978C174.055 10.4281 174.098 10.4715 174.098 10.5495V11.2C174.09 11.278 174.047 11.3127 173.969 11.3127Z" fill="#2a3c4f"/>
<path d="M175.612 16.1957C175.208 15.8661 174.967 15.4238 174.89 14.8601C174.829 14.4525 174.795 14.0015 174.795 13.5072C174.795 12.9955 174.829 12.5532 174.89 12.1629C174.967 11.6079 175.208 11.1656 175.612 10.8273C176.017 10.4891 176.524 10.333 177.152 10.333C177.772 10.333 178.279 10.4978 178.675 10.8273C179.071 11.1569 179.311 11.5992 179.398 12.1456C179.466 12.4925 179.492 12.9434 179.492 13.4985C179.492 14.0535 179.458 14.5045 179.398 14.8514C179.32 15.4151 179.079 15.8661 178.683 16.187C178.288 16.5165 177.78 16.6813 177.152 16.6813C176.524 16.6813 176.017 16.5165 175.612 16.1957ZM177.901 15.3978C178.107 15.2157 178.228 14.9642 178.279 14.6606C178.322 14.2964 178.339 13.9061 178.339 13.4985C178.339 13.0822 178.322 12.6919 178.279 12.345C178.228 12.0415 178.107 11.79 177.901 11.6079C177.694 11.4258 177.445 11.3304 177.135 11.3304C176.842 11.3304 176.593 11.4258 176.386 11.6079C176.18 11.79 176.06 12.0415 176.008 12.345C175.974 12.6312 175.956 13.0128 175.956 13.4985C175.956 13.9928 175.974 14.3831 176.008 14.6606C176.06 14.9642 176.18 15.2157 176.386 15.3978C176.593 15.5799 176.842 15.6753 177.152 15.6753C177.445 15.6753 177.694 15.5886 177.901 15.3978Z" fill="#2a3c4f"/>
<path d="M187.631 10.879C187.94 11.2433 188.095 11.7463 188.095 12.3967V16.4642C188.095 16.5422 188.052 16.5856 187.975 16.5856H187.071C186.994 16.5856 186.951 16.5422 186.951 16.4642V12.5615C186.951 12.1799 186.865 11.885 186.684 11.6682C186.504 11.4514 186.254 11.3387 185.944 11.3387C185.635 11.3387 185.385 11.4427 185.196 11.6595C185.007 11.8764 184.912 12.1626 184.912 12.5355V16.4555C184.912 16.5335 184.869 16.5769 184.792 16.5769H183.888C183.811 16.5769 183.768 16.5335 183.768 16.4555V12.5528C183.768 12.1712 183.673 11.8764 183.493 11.6595C183.312 11.4427 183.062 11.33 182.761 11.33C182.452 11.33 182.202 11.4341 182.013 11.6509C181.824 11.8677 181.729 12.1539 181.729 12.5268V16.4468C181.729 16.5249 181.686 16.5682 181.608 16.5682H180.705C180.628 16.5682 180.585 16.5249 180.585 16.4468V10.5234C180.585 10.4454 180.628 10.402 180.705 10.402H181.608C181.686 10.402 181.729 10.4454 181.729 10.5234V10.8877C181.729 10.905 181.738 10.9137 181.746 10.9224C181.755 10.9311 181.772 10.9224 181.789 10.9137C182.116 10.5148 182.572 10.324 183.157 10.324C183.51 10.324 183.811 10.3934 184.069 10.5408C184.327 10.6882 184.525 10.8964 184.654 11.1826C184.68 11.2172 184.706 11.2086 184.723 11.1739C184.895 10.879 185.127 10.6709 185.411 10.5321C185.695 10.3934 185.996 10.324 186.314 10.324C186.891 10.3326 187.321 10.5148 187.631 10.879Z" fill="#2a3c4f"/>
<path d="M192.965 10.8877C193.36 11.2606 193.567 11.7549 193.567 12.362V16.4641C193.567 16.5422 193.524 16.5856 193.446 16.5856H192.534C192.457 16.5856 192.414 16.5422 192.414 16.4641V16.1172C192.414 16.0999 192.405 16.0912 192.397 16.0826C192.388 16.0826 192.371 16.0826 192.354 16.0999C191.992 16.4902 191.493 16.681 190.848 16.681C190.323 16.681 189.885 16.5335 189.515 16.2473C189.145 15.9611 188.964 15.5015 188.964 14.8597C188.964 14.2006 189.179 13.6976 189.609 13.3507C190.039 13.0038 190.616 12.839 191.356 12.839H192.362C192.397 12.839 192.414 12.8217 192.414 12.787V12.4574C192.414 12.1105 192.328 11.833 192.147 11.6335C191.967 11.4341 191.708 11.33 191.373 11.33C191.106 11.33 190.891 11.3994 190.719 11.5295C190.547 11.6595 190.444 11.8417 190.401 12.0672C190.392 12.1365 190.349 12.1799 190.272 12.1799L189.291 12.1192C189.257 12.1192 189.231 12.1105 189.205 12.0845C189.179 12.0672 189.171 12.0411 189.179 12.0065C189.231 11.5034 189.454 11.1045 189.859 10.7923C190.263 10.4801 190.771 10.324 191.382 10.324C192.027 10.324 192.56 10.5148 192.965 10.8877ZM192.018 15.3888C192.276 15.1893 192.405 14.9204 192.405 14.5735V13.8017C192.405 13.767 192.388 13.7496 192.354 13.7496H191.425C191.029 13.7496 190.719 13.8364 190.478 14.0185C190.246 14.2006 190.126 14.4521 190.126 14.7903C190.126 15.0852 190.212 15.3107 190.392 15.4668C190.564 15.6142 190.797 15.6923 191.089 15.6923C191.45 15.6923 191.76 15.5882 192.018 15.3888Z" fill="#2a3c4f"/>
<path d="M197.223 11.3127H196.156C196.122 11.3127 196.104 11.3301 196.104 11.3648V14.6864C196.104 15.0159 196.173 15.2501 196.302 15.3802C196.431 15.5103 196.638 15.5796 196.922 15.5796H197.154C197.231 15.5796 197.274 15.623 197.274 15.7011V16.4642C197.274 16.5423 197.231 16.5857 197.154 16.5857L196.689 16.5943C196.13 16.5943 195.709 16.4903 195.425 16.2734C195.141 16.0566 194.995 15.6577 194.995 15.0766V11.3561C194.995 11.3214 194.977 11.3041 194.943 11.3041H194.358C194.281 11.3041 194.238 11.2607 194.238 11.1826V10.5322C194.238 10.4541 194.281 10.4108 194.358 10.4108H194.943C194.977 10.4108 194.995 10.3934 194.995 10.3588V8.97981C194.995 8.90176 195.038 8.8584 195.115 8.8584H195.993C196.07 8.8584 196.113 8.90176 196.113 8.97981V10.3761C196.113 10.4108 196.13 10.4281 196.165 10.4281H197.231C197.309 10.4281 197.352 10.4715 197.352 10.5495V11.2C197.343 11.278 197.309 11.3127 197.223 11.3127Z" fill="#2a3c4f"/>
<path d="M198.393 9.23144C198.247 9.08401 198.178 8.90189 198.178 8.6764C198.178 8.44224 198.247 8.25144 198.393 8.11268C198.539 7.97392 198.72 7.90454 198.944 7.90454C199.167 7.90454 199.348 7.97392 199.494 8.12136C199.64 8.26879 199.709 8.45091 199.709 8.6764C199.709 8.90189 199.632 9.08401 199.486 9.23144C199.339 9.37888 199.159 9.44826 198.935 9.44826C198.72 9.44826 198.531 9.37888 198.393 9.23144ZM198.35 16.4644V10.541C198.35 10.4629 198.393 10.4196 198.47 10.4196H199.382C199.46 10.4196 199.503 10.4629 199.503 10.541V16.4644C199.503 16.5424 199.46 16.5858 199.382 16.5858H198.47C198.393 16.5858 198.35 16.5424 198.35 16.4644Z" fill="#2a3c4f"/>
<path d="M201.498 16.1957C201.094 15.8661 200.853 15.4238 200.776 14.8601C200.716 14.4525 200.681 14.0015 200.681 13.5072C200.681 12.9955 200.716 12.5532 200.776 12.1629C200.853 11.6079 201.094 11.1656 201.498 10.8273C201.903 10.4891 202.41 10.333 203.038 10.333C203.658 10.333 204.165 10.4978 204.561 10.8273C204.957 11.1569 205.198 11.5992 205.284 12.1456C205.353 12.4925 205.378 12.9434 205.378 13.4985C205.378 14.0535 205.344 14.5045 205.284 14.8514C205.206 15.4151 204.965 15.8661 204.57 16.187C204.174 16.5165 203.666 16.6813 203.038 16.6813C202.419 16.6813 201.903 16.5165 201.498 16.1957ZM203.787 15.3978C203.993 15.2157 204.114 14.9642 204.165 14.6606C204.208 14.2964 204.226 13.9061 204.226 13.4985C204.226 13.0822 204.208 12.6919 204.165 12.345C204.114 12.0415 203.993 11.79 203.787 11.6079C203.58 11.4258 203.331 11.3304 203.021 11.3304C202.729 11.3304 202.479 11.4258 202.273 11.6079C202.066 11.79 201.946 12.0415 201.894 12.345C201.86 12.6312 201.843 13.0128 201.843 13.4985C201.843 13.9928 201.86 14.3831 201.894 14.6606C201.946 14.9642 202.066 15.2157 202.273 15.3978C202.479 15.5799 202.729 15.6753 203.038 15.6753C203.339 15.6753 203.589 15.5886 203.787 15.3978Z" fill="#2a3c4f"/>
<path d="M210.42 10.8794C210.747 11.2436 210.91 11.7466 210.91 12.3797V16.4645C210.91 16.5426 210.867 16.5859 210.79 16.5859H209.878C209.801 16.5859 209.758 16.5426 209.758 16.4645V12.5532C209.758 12.1803 209.663 11.8854 209.474 11.6686C209.284 11.4518 209.035 11.339 208.708 11.339C208.381 11.339 208.114 11.4518 207.917 11.6686C207.719 11.8941 207.624 12.1889 207.624 12.5619V16.4645C207.624 16.5426 207.581 16.5859 207.504 16.5859H206.592C206.514 16.5859 206.471 16.5426 206.471 16.4645V10.5411C206.471 10.4631 206.514 10.4197 206.592 10.4197H207.504C207.581 10.4197 207.624 10.4631 207.624 10.5411V10.9141C207.624 10.9401 207.633 10.9488 207.641 10.9574C207.65 10.9574 207.667 10.9488 207.684 10.9227C207.994 10.5238 208.45 10.333 209.052 10.333C209.646 10.333 210.102 10.5151 210.42 10.8794Z" fill="#2a3c4f"/>
<path d="M215.393 16.3777C215.005 16.1695 214.704 15.8833 214.489 15.5018C214.274 15.1288 214.171 14.6952 214.171 14.2009V10.4803C214.171 9.72583 214.403 9.12742 214.876 8.68512C215.35 8.24282 215.96 8.01733 216.735 8.01733C217.5 8.01733 218.12 8.24282 218.584 8.68512C219.049 9.12742 219.281 9.71716 219.281 10.4543V10.5497C219.281 10.5931 219.272 10.6191 219.247 10.6451C219.221 10.6711 219.195 10.6798 219.161 10.6798L218.249 10.7318C218.171 10.7318 218.128 10.6885 218.128 10.6104V10.4283C218.128 10.012 217.999 9.66512 217.741 9.41362C217.483 9.15344 217.148 9.02335 216.735 9.02335C216.322 9.02335 215.978 9.15344 215.719 9.41362C215.461 9.67379 215.332 10.012 215.332 10.4283V14.2789C215.332 14.6952 215.461 15.0421 215.719 15.2936C215.978 15.5451 216.322 15.6839 216.735 15.6839C217.148 15.6839 217.492 15.5538 217.741 15.2936C217.999 15.0334 218.128 14.6952 218.128 14.2789V14.1055C218.128 14.0274 218.171 13.9841 218.249 13.9841L219.161 14.0361C219.238 14.0361 219.281 14.0795 219.281 14.1575V14.2442C219.281 14.7299 219.178 15.1549 218.963 15.5278C218.748 15.9007 218.455 16.1869 218.068 16.3864C217.681 16.5858 217.242 16.6899 216.735 16.6899C216.227 16.6812 215.78 16.5772 215.393 16.3777Z" fill="#2a3c4f"/>
<path d="M220.348 16.4644V8.22542C220.348 8.14737 220.391 8.104 220.468 8.104H221.38C221.457 8.104 221.5 8.14737 221.5 8.22542V16.4644C221.5 16.5424 221.457 16.5858 221.38 16.5858H220.468C220.391 16.5858 220.348 16.5424 220.348 16.4644Z" fill="#2a3c4f"/>
<path d="M223.367 16.1957C222.963 15.8661 222.722 15.4238 222.645 14.8601C222.584 14.4525 222.55 14.0015 222.55 13.5072C222.55 12.9955 222.584 12.5532 222.645 12.1629C222.722 11.6079 222.963 11.1656 223.367 10.8273C223.772 10.4891 224.279 10.333 224.907 10.333C225.527 10.333 226.034 10.4978 226.43 10.8273C226.826 11.1569 227.067 11.5992 227.153 12.1456C227.221 12.4925 227.247 12.9434 227.247 13.4985C227.247 14.0535 227.213 14.5045 227.153 14.8514C227.075 15.4151 226.834 15.8661 226.439 16.187C226.043 16.5165 225.535 16.6813 224.907 16.6813C224.279 16.6813 223.763 16.5165 223.367 16.1957ZM225.656 15.3978C225.862 15.2157 225.983 14.9642 226.034 14.6606C226.077 14.2964 226.095 13.9061 226.095 13.4985C226.095 13.0822 226.077 12.6919 226.034 12.345C225.983 12.0415 225.862 11.79 225.656 11.6079C225.449 11.4258 225.2 11.3304 224.89 11.3304C224.598 11.3304 224.348 11.4258 224.142 11.6079C223.935 11.79 223.815 12.0415 223.763 12.345C223.729 12.6312 223.711 13.0128 223.711 13.4985C223.711 13.9928 223.729 14.3831 223.763 14.6606C223.815 14.9642 223.935 15.2157 224.142 15.3978C224.348 15.5799 224.598 15.6753 224.907 15.6753C225.2 15.6753 225.449 15.5886 225.656 15.3978Z" fill="#2a3c4f"/>
<path d="M231.669 10.4194H232.581C232.658 10.4194 232.701 10.4628 232.701 10.5408V16.4642C232.701 16.5423 232.658 16.5856 232.581 16.5856H231.669C231.592 16.5856 231.549 16.5423 231.549 16.4642V16.0913C231.549 16.0739 231.54 16.0653 231.531 16.0566C231.523 16.0479 231.506 16.0566 231.488 16.0653C231.205 16.4729 230.766 16.6724 230.164 16.6724C229.622 16.6724 229.166 16.5076 228.813 16.1867C228.46 15.8658 228.28 15.3975 228.28 14.7817V10.5408C228.28 10.4628 228.323 10.4194 228.4 10.4194H229.303C229.381 10.4194 229.424 10.4628 229.424 10.5408V14.4608C229.424 14.8424 229.518 15.1373 229.69 15.3455C229.871 15.5536 230.129 15.6577 230.465 15.6577C230.792 15.6577 231.058 15.5449 231.256 15.3281C231.454 15.1026 231.549 14.8078 231.549 14.4262V10.5408C231.549 10.4628 231.592 10.4194 231.669 10.4194Z" fill="#2a3c4f"/>
<path d="M237.33 8.104H238.242C238.319 8.104 238.362 8.14737 238.362 8.22542V16.4644C238.362 16.5424 238.319 16.5858 238.242 16.5858H237.33C237.253 16.5858 237.209 16.5424 237.209 16.4644V16.0567C237.209 16.0394 237.201 16.0307 237.184 16.0221C237.166 16.0134 237.158 16.0221 237.149 16.0307C236.857 16.4644 236.409 16.6812 235.79 16.6812C235.291 16.6812 234.895 16.5337 234.586 16.2475C234.284 15.9613 234.061 15.5104 233.915 14.9033C233.82 14.487 233.768 14.0274 233.768 13.5244C233.768 13.004 233.811 12.5444 233.889 12.1454C234.13 10.9313 234.783 10.3329 235.85 10.3329C236.16 10.3329 236.427 10.3849 236.633 10.489C236.84 10.593 237.012 10.7491 237.149 10.9573C237.166 10.9746 237.175 10.9833 237.192 10.9833C237.201 10.9833 237.209 10.9746 237.209 10.9486V8.22542C237.209 8.14737 237.244 8.104 237.33 8.104ZM237.192 13.4983C237.192 12.8913 237.132 12.4316 237.02 12.1194C236.951 11.8592 236.84 11.6684 236.693 11.5297C236.547 11.3996 236.349 11.3302 236.108 11.3302C235.635 11.3302 235.308 11.5817 235.119 12.0934C234.99 12.4576 234.93 12.9259 234.93 13.4983C234.93 14.0794 234.981 14.5304 235.085 14.8426C235.257 15.3976 235.592 15.6752 236.091 15.6752C236.556 15.6752 236.865 15.4063 237.029 14.8599C237.141 14.539 237.192 14.0881 237.192 13.4983Z" fill="#2a3c4f"/>
<path d="M74.7167 47.2L70.5012 36.2812C70.4754 36.2119 70.4324 36.1685 70.3549 36.1685H66.4664C66.3718 36.1685 66.3201 36.2205 66.3201 36.3159V47.1219C66.3201 47.3648 66.1997 47.4862 65.9588 47.4862H63.1973C62.9564 47.4862 62.8359 47.3648 62.8359 47.1219V22.2143C62.8359 21.9715 62.9564 21.8501 63.1973 21.8501H71.3357C73.3746 21.8501 75.0092 22.5179 76.2394 23.8621C77.4782 25.2064 78.0976 26.9669 78.0976 29.1351C78.0976 30.7742 77.7191 32.1791 76.9706 33.3499C76.2222 34.5207 75.1898 35.3273 73.8822 35.7696C73.8133 35.7956 73.7875 35.8563 73.8133 35.9517L78.2439 47.0526L78.2783 47.2C78.2783 47.3995 78.1665 47.4949 77.9514 47.4949H75.1124C74.9231 47.4949 74.7855 47.3995 74.7167 47.2ZM66.3201 25.0329V33.2372C66.3201 33.3326 66.3718 33.3846 66.4664 33.3846H70.8625C71.9723 33.3846 72.8756 33.003 73.5725 32.2312C74.2693 31.4593 74.6048 30.4446 74.6048 29.1697C74.6048 27.8775 74.2693 26.8368 73.5897 26.0563C72.91 25.2758 71.9981 24.8855 70.8625 24.8855H66.4664C66.3632 24.8855 66.3201 24.9375 66.3201 25.0329Z" fill="#2a3c4f"/>
<path d="M83.0357 46.2981C81.8227 45.3095 81.1 43.9566 80.8592 42.2481C80.6613 41.0252 80.5667 39.655 80.5667 38.1459C80.5667 36.6109 80.6613 35.2493 80.8592 34.0785C81.1 32.396 81.8313 31.0518 83.0357 30.0458C84.2487 29.0484 85.7973 28.5454 87.6899 28.5454C89.5568 28.5454 91.0967 29.0484 92.3097 30.0458C93.5227 31.0518 94.2454 32.3787 94.4863 34.0351C94.6841 35.0845 94.7788 36.4548 94.7788 38.1373C94.7788 39.8197 94.6841 41.19 94.4863 42.2394C94.2454 43.9479 93.5227 45.3008 92.3269 46.2895C91.1311 47.2781 89.5826 47.7725 87.6899 47.7725C85.7973 47.7898 84.2487 47.2868 83.0357 46.2981ZM89.9611 43.9045C90.5805 43.3408 90.9591 42.595 91.1053 41.667C91.2257 40.5656 91.286 39.3948 91.286 38.1459C91.286 36.8797 91.2257 35.7176 91.1053 34.6682C90.9591 33.7403 90.5805 32.9944 89.9611 32.4307C89.3417 31.867 88.576 31.5895 87.6555 31.5895C86.7608 31.5895 86.0037 31.867 85.3843 32.4307C84.7649 32.9944 84.3864 33.7403 84.2401 34.6682C84.1455 35.5268 84.0939 36.6803 84.0939 38.1459C84.0939 39.6376 84.1455 40.8084 84.2401 41.667C84.3864 42.595 84.7649 43.3408 85.3843 43.9045C86.0037 44.4682 86.7694 44.7458 87.6899 44.7458C88.5846 44.7458 89.3417 44.4682 89.9611 43.9045Z" fill="#2a3c4f"/>
<path d="M111.968 38.2239C111.968 39.7416 111.821 41.1292 111.529 42.4041C111.116 44.234 110.454 45.5956 109.533 46.4715C108.613 47.3474 107.391 47.7897 105.86 47.7897C104.019 47.7897 102.659 47.1393 101.79 45.8471C101.765 45.795 101.73 45.7864 101.679 45.8124C101.627 45.8384 101.61 45.8731 101.61 45.9251V47.1306C101.61 47.3735 101.489 47.4949 101.248 47.4949H98.4868C98.2459 47.4949 98.1255 47.3735 98.1255 47.1306V22.2143C98.1255 21.9715 98.2459 21.8501 98.4868 21.8501H101.248C101.489 21.8501 101.61 21.9715 101.61 22.2143V30.3839C101.61 30.4533 101.627 30.4966 101.661 30.4966C101.696 30.4966 101.739 30.4706 101.79 30.4273C102.59 29.1784 103.898 28.5627 105.713 28.5627C108.914 28.5627 110.875 30.3926 111.598 34.0611C111.847 35.2666 111.968 36.6628 111.968 38.2239ZM108.44 38.1458C108.44 36.342 108.26 34.9197 107.898 33.8963C107.313 32.3612 106.324 31.5894 104.922 31.5894C104.191 31.5894 103.606 31.7889 103.158 32.1965C102.711 32.5954 102.367 33.1938 102.126 33.9743C101.808 34.9543 101.653 36.342 101.653 38.1545C101.653 39.9151 101.799 41.294 102.091 42.2913C102.599 43.9304 103.554 44.7457 104.965 44.7457C106.488 44.7457 107.511 43.9044 108.019 42.2133C108.294 41.242 108.44 39.8804 108.44 38.1458Z" fill="#2a3c4f"/>
<path d="M117.164 46.2981C115.951 45.3095 115.228 43.9566 114.987 42.2481C114.789 41.0252 114.695 39.655 114.695 38.1459C114.695 36.6109 114.789 35.2493 114.987 34.0785C115.228 32.396 115.959 31.0518 117.164 30.0458C118.377 29.0484 119.925 28.5454 121.818 28.5454C123.685 28.5454 125.225 29.0484 126.438 30.0458C127.651 31.0518 128.374 32.3787 128.614 34.0351C128.812 35.0845 128.907 36.4548 128.907 38.1373C128.907 39.8197 128.812 41.19 128.614 42.2394C128.374 43.9479 127.651 45.3008 126.455 46.2895C125.259 47.2781 123.711 47.7725 121.818 47.7725C119.925 47.7898 118.377 47.2868 117.164 46.2981ZM124.089 43.9045C124.709 43.3408 125.087 42.595 125.233 41.667C125.354 40.5656 125.414 39.3948 125.414 38.1459C125.414 36.8797 125.354 35.7176 125.233 34.6682C125.087 33.7403 124.709 32.9944 124.089 32.4307C123.47 31.867 122.704 31.5895 121.784 31.5895C120.889 31.5895 120.132 31.867 119.512 32.4307C118.893 32.9944 118.515 33.7403 118.368 34.6682C118.274 35.5268 118.222 36.6803 118.222 38.1459C118.222 39.6376 118.274 40.8084 118.368 41.667C118.515 42.595 118.893 43.3408 119.512 43.9045C120.132 44.4682 120.898 44.7458 121.818 44.7458C122.713 44.7458 123.47 44.4682 124.089 43.9045Z" fill="#2a3c4f"/>
<path d="M139.876 31.5545H136.641C136.546 31.5545 136.495 31.6065 136.495 31.7019V41.7447C136.495 42.7507 136.693 43.4445 137.097 43.8522C137.501 44.2598 138.121 44.4592 138.972 44.4592H139.661C139.902 44.4592 140.022 44.5807 140.022 44.8235V47.1304C140.022 47.3732 139.902 47.4946 139.661 47.4946L138.241 47.5293C136.546 47.5293 135.265 47.2084 134.404 46.558C133.544 45.9076 133.114 44.7107 133.114 42.9502V31.7019C133.114 31.6065 133.062 31.5545 132.968 31.5545H131.187C130.946 31.5545 130.825 31.433 130.825 31.1902V29.2129C130.825 28.97 130.946 28.8486 131.187 28.8486H132.968C133.062 28.8486 133.114 28.7966 133.114 28.7012V24.4863C133.114 24.2435 133.234 24.1221 133.475 24.1221H136.125C136.366 24.1221 136.486 24.2435 136.486 24.4863V28.7012C136.486 28.7966 136.538 28.8486 136.632 28.8486H139.867C140.108 28.8486 140.228 28.97 140.228 29.2129V31.1902C140.237 31.433 140.117 31.5545 139.876 31.5545Z" fill="#2a3c4f"/>
<path d="M152.582 46.9224C151.404 46.35 150.5 45.5522 149.855 44.5201C149.21 43.4881 148.892 42.2999 148.892 40.9297V39.9497C148.892 39.7069 149.012 39.5854 149.253 39.5854H151.946C152.187 39.5854 152.307 39.7069 152.307 39.9497V40.7562C152.307 41.953 152.711 42.9157 153.529 43.6529C154.346 44.39 155.438 44.7543 156.815 44.7543C158.054 44.7543 159.026 44.4161 159.74 43.7483C160.454 43.0805 160.815 42.1872 160.815 41.0945C160.815 40.3573 160.635 39.7242 160.273 39.1865C159.912 38.6488 159.379 38.1458 158.69 37.6861C158.002 37.2265 157.004 36.6368 155.688 35.9256C154.208 35.1451 153.03 34.4513 152.144 33.8355C151.257 33.2284 150.526 32.4566 149.941 31.5286C149.356 30.6007 149.072 29.4732 149.072 28.155C149.072 26.0996 149.735 24.4952 151.068 23.3157C152.402 22.1449 154.174 21.5552 156.376 21.5552C157.899 21.5552 159.25 21.85 160.411 22.4311C161.572 23.0122 162.476 23.8447 163.121 24.9028C163.766 25.9608 164.084 27.1923 164.084 28.5886V29.4299C164.084 29.6727 163.964 29.7941 163.723 29.7941H160.996C160.755 29.7941 160.635 29.6727 160.635 29.4299V28.658C160.635 27.4612 160.248 26.4812 159.473 25.7267C158.699 24.9722 157.641 24.5906 156.316 24.5906C155.129 24.5906 154.2 24.8941 153.537 25.5099C152.875 26.1169 152.539 26.9842 152.539 28.1116C152.539 28.8488 152.703 29.4646 153.03 29.9762C153.357 30.4879 153.856 30.9736 154.535 31.4246C155.215 31.8755 156.221 32.4479 157.555 33.1244C159.224 34.0784 160.488 34.8589 161.349 35.466C162.209 36.073 162.914 36.8189 163.456 37.7035C163.998 38.5794 164.274 39.6461 164.274 40.895C164.274 42.9938 163.585 44.6676 162.218 45.9164C160.85 47.1653 159 47.781 156.677 47.781C155.12 47.7897 153.752 47.4948 152.582 46.9224Z" fill="#2a3c4f"/>
<path d="M169.298 46.298C168.102 45.3093 167.362 43.9564 167.095 42.2479C166.923 41.1465 166.837 39.7676 166.837 38.1111C166.837 36.6715 166.923 35.3186 167.095 34.0437C167.362 32.3872 168.102 31.0517 169.315 30.0543C170.528 29.057 172.051 28.554 173.892 28.554C175.681 28.554 177.195 29.0309 178.434 29.9849C179.673 30.9389 180.404 32.1617 180.654 33.6448L180.8 34.5207C180.8 34.7375 180.68 34.8763 180.439 34.9196L177.712 35.1364H177.643C177.496 35.1364 177.402 35.0497 177.35 34.8763L177.316 34.7288L177.247 34.2865C177.127 33.532 176.765 32.8902 176.154 32.3612C175.552 31.8322 174.787 31.572 173.866 31.572C172.946 31.572 172.188 31.8495 171.595 32.4132C171.001 32.977 170.64 33.7228 170.519 34.6508C170.399 35.6741 170.339 36.8363 170.339 38.1285C170.339 39.5681 170.408 40.7563 170.554 41.6842C170.674 42.6122 171.027 43.3493 171.612 43.9044C172.197 44.4594 172.946 44.7283 173.866 44.7283C174.812 44.7283 175.587 44.4681 176.189 43.9391C176.791 43.4187 177.144 42.7596 177.247 41.9791L177.281 41.6148C177.307 41.372 177.436 41.2593 177.677 41.2853L180.404 41.4674C180.645 41.4674 180.766 41.6062 180.766 41.8663L180.654 42.4908C180.456 44.0518 179.742 45.3267 178.512 46.298C177.273 47.278 175.733 47.7637 173.892 47.7637C172.034 47.7897 170.494 47.2867 169.298 46.298Z" fill="#2a3c4f"/>
<path d="M195.571 30.2365C196.552 31.3379 197.042 32.8469 197.042 34.7809V47.1306C197.042 47.3735 196.922 47.4949 196.681 47.4949H193.919C193.679 47.4949 193.558 47.3735 193.558 47.1306V35.2926C193.558 34.1738 193.274 33.2805 192.706 32.6214C192.139 31.9623 191.364 31.6327 190.401 31.6327C189.403 31.6327 188.611 31.971 188.018 32.6388C187.424 33.3152 187.123 34.2085 187.123 35.3359V47.1306C187.123 47.3735 187.003 47.4949 186.762 47.4949H184C183.759 47.4949 183.639 47.3735 183.639 47.1306V22.2143C183.639 21.9715 183.759 21.8501 184 21.8501H186.762C187.003 21.8501 187.123 21.9715 187.123 22.2143V30.3492C187.123 30.4186 187.14 30.462 187.175 30.4793C187.209 30.488 187.252 30.462 187.304 30.3839C188.25 29.1871 189.627 28.5887 191.45 28.5887C193.214 28.5887 194.591 29.1351 195.571 30.2365Z" fill="#2a3c4f"/>
<path d="M202.531 46.2981C201.318 45.3095 200.596 43.9566 200.355 42.2481C200.157 41.0252 200.062 39.655 200.062 38.1459C200.062 36.6109 200.157 35.2493 200.355 34.0785C200.596 32.396 201.327 31.0518 202.531 30.0458C203.744 29.0484 205.293 28.5454 207.186 28.5454C209.052 28.5454 210.592 29.0484 211.805 30.0458C213.018 31.0518 213.741 32.3787 213.982 34.0351C214.18 35.0845 214.274 36.4548 214.274 38.1373C214.274 39.8197 214.18 41.19 213.982 42.2394C213.741 43.9479 213.018 45.3008 211.823 46.2895C210.627 47.2781 209.078 47.7725 207.186 47.7725C205.293 47.7898 203.744 47.2868 202.531 46.2981ZM209.457 43.9045C210.076 43.3408 210.455 42.595 210.601 41.667C210.721 40.5656 210.782 39.3948 210.782 38.1459C210.782 36.8797 210.721 35.7176 210.601 34.6682C210.455 33.7403 210.076 32.9944 209.457 32.4307C208.837 31.867 208.072 31.5895 207.151 31.5895C206.256 31.5895 205.499 31.867 204.88 32.4307C204.261 32.9944 203.882 33.7403 203.736 34.6682C203.641 35.5268 203.589 36.6803 203.589 38.1459C203.589 39.6376 203.641 40.8084 203.736 41.667C203.882 42.595 204.261 43.3408 204.88 43.9045C205.499 44.4682 206.265 44.7458 207.186 44.7458C208.08 44.7458 208.837 44.4682 209.457 43.9045Z" fill="#2a3c4f"/>
<path d="M219.617 46.2981C218.403 45.3095 217.681 43.9566 217.44 42.2481C217.242 41.0252 217.147 39.655 217.147 38.1459C217.147 36.6109 217.242 35.2493 217.44 34.0785C217.681 32.396 218.412 31.0518 219.617 30.0458C220.83 29.0484 222.378 28.5454 224.271 28.5454C226.138 28.5454 227.678 29.0484 228.891 30.0458C230.104 31.0518 230.826 32.3787 231.067 34.0351C231.265 35.0845 231.36 36.4548 231.36 38.1373C231.36 39.8197 231.265 41.19 231.067 42.2394C230.826 43.9479 230.104 45.3008 228.908 46.2895C227.712 47.2781 226.163 47.7725 224.271 47.7725C222.378 47.7898 220.83 47.2868 219.617 46.2981ZM226.542 43.9045C227.161 43.3408 227.54 42.595 227.686 41.667C227.807 40.5656 227.867 39.3948 227.867 38.1459C227.867 36.8797 227.807 35.7176 227.686 34.6682C227.54 33.7403 227.161 32.9944 226.542 32.4307C225.923 31.867 225.157 31.5895 224.236 31.5895C223.342 31.5895 222.585 31.867 221.965 32.4307C221.346 32.9944 220.967 33.7403 220.821 34.6682C220.726 35.5268 220.675 36.6803 220.675 38.1459C220.675 39.6376 220.726 40.8084 220.821 41.667C220.967 42.595 221.346 43.3408 221.965 43.9045C222.585 44.4682 223.35 44.7458 224.271 44.7458C225.165 44.7458 225.923 44.4682 226.542 43.9045Z" fill="#2a3c4f"/>
<path d="M234.586 47.1219V22.2143C234.586 21.9715 234.706 21.8501 234.947 21.8501H237.709C237.95 21.8501 238.07 21.9715 238.07 22.2143V47.1306C238.07 47.3735 237.95 47.4949 237.709 47.4949H234.947C234.706 47.4949 234.586 47.3734 234.586 47.1219Z" fill="#2a3c4f"/>
</g>
<defs>
<clipPath id="clip0">
<rect width="238.294" height="70.6901" fill="white" transform="translate(0.0688477 0.576416)"/>
</clipPath>
</defs>
</svg>