<svg xmlns="http://www.w3.org/2000/svg" width="82" height="97" viewBox="0 0 82 97" fill="none">
    <circle cx="26.0457" cy="41.6602" r="55.1106" fill="#268FBD"/>
    <path d="M17.2975 32.7432C13.866 32.7432 11.0837 35.548 11.0837 39.0072C11.0837 42.4665 13.866 45.2713 17.2975 45.2713C20.7291 45.2713 23.5114 42.4665 23.5114 39.0072C23.5114 35.548 20.7291 32.7432 17.2975 32.7432ZM17.2975 42.3964C15.4427 42.3964 13.9356 40.8771 13.9356 39.0072C13.9356 37.1374 15.4427 35.6181 17.2975 35.6181C19.1524 35.6181 20.6595 37.1374 20.6595 39.0072C20.6595 40.8771 19.1524 42.3964 17.2975 42.3964Z" fill="#D7F1FC"/>
    <path d="M28.5503 39.0075C28.5503 40.3319 29.6168 41.4071 30.9307 41.4071C32.2446 41.4071 33.3111 40.3319 33.3111 39.0075C33.3111 37.683 32.2446 36.6078 30.9307 36.6078C29.6168 36.6078 28.5503 37.683 28.5503 39.0075Z" fill="#D7F1FC"/>
    <path d="M46.8828 62.9881C45.623 61.7493 44.9892 59.412 44.6646 57.4954C44.3478 55.4229 44.2705 53.3349 44.2859 51.2391C44.3091 48.6602 44.4869 46.097 44.7728 43.5415C44.9042 42.3261 45.0897 41.1184 45.2366 39.903C45.3293 39.0927 45.4607 38.2747 45.453 37.4644C45.4298 34.0129 45.1052 30.5848 44.34 27.2113C43.6677 24.2506 42.632 21.4224 41.0322 18.8358C39.471 16.3115 37.4616 14.2468 34.8802 12.7665C32.2216 11.2394 29.3542 10.4993 26.3092 10.4759C25.7527 10.4681 25.1963 10.5382 24.6475 10.5382C23.9288 10.5382 23.21 10.4993 22.4912 10.4681C20.9919 10.4136 19.508 10.5616 18.0396 10.8811C15.4195 11.442 13.0546 12.5561 10.9679 14.2468C8.41742 16.3193 6.63984 18.9605 5.34916 21.9678C4.05848 24.9752 3.34745 28.1384 2.94556 31.3795C2.68278 33.4675 2.57458 35.5711 2.52821 37.6747C2.52048 37.9396 2.51276 38.2123 2.54367 38.4694C2.73689 39.9342 2.97647 41.3911 3.1465 42.8636C3.4711 45.6295 3.67978 48.4031 3.70296 51.1924C3.71069 52.2831 3.69523 53.3817 3.64113 54.4646L3.6334 54.4568C3.6334 54.4568 3.62568 54.6438 3.61022 54.9555C3.60249 55.1269 3.58703 55.2905 3.57158 55.4619C3.40928 57.3162 2.876 61.2273 1.09842 62.9725C-1.26654 65.3021 -0.64825 65.8708 -0.0840608 65.8708C0.387385 65.8708 4.49128 64.3749 5.84379 63.8763C9.51488 69.9067 16.2697 73.958 24.0138 73.958C31.7579 73.958 38.5049 69.9144 42.176 63.8919C43.5672 64.4061 47.5938 65.8708 48.0652 65.8708C48.6294 65.8786 49.2477 65.3177 46.8828 62.9881ZM34.2928 39.007C34.2928 40.8769 32.7858 42.3962 30.9309 42.3962C29.076 42.3962 27.5689 40.8769 27.5689 39.007C27.5689 37.1372 29.076 35.6179 30.9309 35.6179C32.7935 35.6179 34.2928 37.1294 34.2928 39.007ZM37.2374 64.2815C36.1477 65.5826 34.8029 66.572 33.3499 67.4213C31.1318 68.7146 28.7591 69.5561 26.2164 69.8989C23.4728 70.265 20.7987 69.9534 18.1864 69.0496C15.7828 68.216 13.5879 67.0084 11.7021 65.2787C11.0838 64.71 10.4887 64.11 10.1409 63.3154C10.1254 63.2842 10.11 63.2452 10.0945 63.2141C9.83176 62.5674 9.83949 62.5674 10.4578 62.2791C11.6403 61.7338 12.6836 60.9936 13.2633 59.7782C13.5029 59.2718 13.6111 58.6952 13.7888 58.1109C13.8816 58.1966 14.0052 58.3212 14.1289 58.4381C15.8214 60.0431 17.6995 61.3676 19.9021 62.1856C23.2641 63.44 26.5333 63.144 29.7175 61.5312C31.356 60.6975 32.8012 59.5912 34.1305 58.3212C34.2001 58.2589 34.2619 58.1966 34.3315 58.1343C34.3469 58.1265 34.3624 58.1187 34.3856 58.1109C34.4629 58.4849 34.5092 58.8744 34.6252 59.2328C35.0193 60.4638 35.8927 61.2897 36.9669 61.9207C37.2452 62.0844 37.5466 62.2246 37.848 62.357C38.0103 62.4272 38.0799 62.4973 38.0335 62.7076C37.9098 63.3154 37.6239 63.8218 37.2374 64.2815ZM41.4186 40.9938C41.264 42.0923 40.9858 43.1519 40.4216 44.118C40.2671 44.3829 40.0738 44.64 39.8574 44.8582C39.4478 45.2789 39.1464 45.3178 38.5977 45.0529C38.4586 45.4425 38.3272 45.8243 38.1803 46.206C36.6501 50.2107 34.4938 53.7868 31.1937 56.5682C29.818 57.7291 28.28 58.6095 26.5333 59.077C24.2534 59.6925 22.0507 59.4432 19.9253 58.4537C17.9623 57.5421 16.3315 56.1865 14.9095 54.5737C12.5136 51.8624 10.821 48.7382 9.66946 45.3101C9.64627 45.2477 9.62309 45.1854 9.5999 45.1309C9.59217 45.1075 9.56898 45.0919 9.55353 45.0685C8.91205 45.3101 8.57972 45.2243 8.10828 44.6556C7.59046 44.0245 7.28131 43.2766 7.05718 42.4897C6.68621 41.2041 6.52391 39.8952 6.77895 38.5707C6.84851 38.2123 6.98763 37.8462 7.17311 37.5267C7.45134 37.0515 7.83004 36.9813 8.31695 37.2384C8.35559 37.2618 8.39423 37.2774 8.47152 37.3086C8.54108 36.8723 8.60291 36.4515 8.68792 36.0308C9.08208 33.9973 9.7081 32.0496 10.9138 30.3355C11.9494 28.863 13.3019 27.8346 15.1104 27.5619C15.6669 27.4762 16.2388 27.5151 16.803 27.5151C16.8957 27.5151 16.9885 27.5774 17.0812 27.6242C20.7987 29.5486 24.5084 31.4808 28.2259 33.4052C26.1701 34.4258 24.7325 36.5372 24.7325 39.007C24.7325 42.4663 27.5148 45.2711 30.9463 45.2711C34.3779 45.2711 37.1602 42.4663 37.1602 39.007C37.1602 38.6564 37.1138 38.3214 37.0597 37.9864C37.3302 38.1266 37.6007 38.2669 37.8635 38.4071C38.0489 38.5006 38.2499 38.5863 38.4199 38.6954C38.6131 38.82 38.7368 38.7733 38.8914 38.6175C39.3396 38.1656 39.8188 37.7293 40.2671 37.2696C40.4603 37.0748 40.6071 37.106 40.7849 37.254C41.1172 37.5345 41.2563 37.9241 41.3568 38.3292C41.5577 39.2174 41.5423 40.1056 41.4186 40.9938Z" fill="#D7F1FC"/>
</svg>
