<svg xmlns="http://www.w3.org/2000/svg" viewBox="0 0 149.3 152">
  <path fill="#FF5A5F" d="M103.4 72.2c-8.2 0-14.9 6.7-14.9 14.9 0 8.2 6.7 14.9 14.9 14.9s14.9-6.7
    14.9-14.9C118.4 78.9 111.7 72.2 103.4 72.2zM103.4 97.6c-5.8 0-10.5-4.7-10.5-10.5
    0-5.8 4.7-10.5 10.5-10.5 5.8 0 10.5 4.7 10.5 10.5C113.9 92.9 109.2 97.6 103.4
    97.6zM58.2 87.2c0 8.2-6.7 14.9-14.9 14.9s-14.9-6.7-14.9-14.9c0-8.2 6.7-14.9 14.9-14.9S58.2
    78.9 58.2 87.2zM149.3 78.9c0-10.2-7.4-18.6-17.1-20.2 0-0.1 0-0.2 0-0.3 0-15.1-12.2-27.3-27.3-27.3
    -4.7 0-9.1 1.2-13 3.3 -6.8-12.4-19.9-20.7-35-20.7 -22 0-39.9 17.9-39.9 39.9 0 0.9 0.1 1.7 0.1 2.5C7.3
    58.3 0 67 0 77.4c0 6.1 2.4 11.5 6.4 15.5 -1.6 3.5-2.5 7.4-2.5 11.5 0 11 6.4 20.5 15.6 25.1 0 0.3-0.1
    0.6-0.1 0.9 0 11.9 9.7 21.6 21.6 21.6 0.1 0 0.1 0 0.2 0V152h68.3c11.9 0 21.6-9.7 21.6-21.6
    0-0.4-0.1-0.8-0.1-1.3 8.8-4.7 14.8-14 14.8-24.7 0-4-0.8-7.8-2.3-11.2C147 89.6 149.3 84.5
    149.3 78.9zM43.3 114.7c-15.2 0-27.5-12.4-27.5-27.5 0-15.2 12.4-27.5 27.5-27.5S70.8 72 70.8
    87.2C70.8 102.3 58.5 114.7 43.3 114.7zM103.4 114.7c-15.2 0-27.5-12.4-27.5-27.5 0-15.2 12.4-27.5
    27.5-27.5s27.5 12.4 27.5 27.6C131 102.3 118.6 114.7 103.4 114.7zM131.6 17.2c0 3-2.4 5.4-5.4 5.4h-28c-3.2
    0-5.8-2.6-5.8-5.8 0-2.7 1.9-5 4.5-5.6 0-0.2 0-0.4 0-0.7C96.9 4.7 101.6 0 107.4 0c4 0 7.4 2.2 9.2 5.5
    1-0.5 2.2-0.9 3.4-0.9 4 0 7.2 3.2 7.2 7.2 0 0 0 0.1 0 0.1C129.7 12.3 131.6 14.5 131.6 17.2z"
    />
</svg>
