<?xml version="1.0" encoding="UTF-8"?>
<svg width="16px" height="14px" viewBox="0 0 16 14" version="1.1" xmlns="http://www.w3.org/2000/svg" xmlns:xlink="http://www.w3.org/1999/xlink">
    <!-- Generator: Sketch 49 (51002) - http://www.bohemiancoding.com/sketch -->
    <title>Fill 1</title>
    <desc>Created with Sketch.</desc>
    <defs></defs>
    <g id="Page-1" stroke="none" stroke-width="1" fill="none" fill-rule="evenodd">
        <g id="Recipes" transform="translate(-62.000000, -23.000000)" fill="#000000">
            <path d="M70.2727964,29.9691727 C70.2727964,28.4424108 71.5269483,27.2046345 73.0742864,27.2046345 C74.6216246,27.2046345 75.8757765,28.4424108 75.8757765,29.9691727 C75.8757765,31.4956326 74.6216246,32.7334089 73.0742864,32.7334089 C71.5269483,32.7334089 70.2727964,31.4956326 70.2727964,29.9691727 Z M64.124147,29.9691727 C64.124147,28.4424108 65.3786049,27.2046345 66.9256371,27.2046345 C68.4729752,27.2046345 69.7271271,28.4424108 69.7271271,29.9691727 C69.7271271,31.4956326 68.4729752,32.7334089 66.9256371,32.7334089 C65.3786049,32.7334089 64.124147,31.4956326 64.124147,29.9691727 Z M74.3685295,23.4970431 C74.1888841,23.1893354 73.8562186,23 73.4963156,23 L66.5036079,23 C66.1437049,23 65.8113455,23.1893354 65.631394,23.4970431 L62.1351932,29.4721296 C61.9549356,29.7795353 61.9549356,30.1585081 62.1351932,30.4659138 L65.631394,36.4413022 C65.8113455,36.748708 66.1437049,36.9380434 66.5036079,36.9380434 L73.4963156,36.9380434 C73.8562186,36.9380434 74.1888841,36.748708 74.3685295,36.4413022 L77.8650364,30.4659138 C78.0449879,30.1585081 78.0449879,29.7795353 77.8650364,29.4721296 L74.3685295,23.4970431 Z M72.0019223,29.9691727 C72.0019223,29.3848601 72.4820991,28.9110687 73.0742864,28.9110687 C73.6664738,28.9110687 74.1466505,29.3848601 74.1466505,29.9691727 C74.1466505,30.5534852 73.6664738,31.0272766 73.0742864,31.0272766 C72.4820991,31.0272766 72.0019223,30.5534852 72.0019223,29.9691727 Z M71.5578583,29.9691727 C71.5578583,30.7956654 72.236655,31.4654355 73.0742864,31.4654355 C73.9119179,31.4654355 74.5907146,30.7956654 74.5907146,29.9691727 C74.5907146,29.14268 73.9119179,28.4729098 73.0742864,28.4729098 C72.236655,28.4729098 71.5578583,29.14268 71.5578583,29.9691727 Z M65.4092089,29.9691727 C65.4092089,30.7956654 66.0883117,31.4654355 66.9256371,31.4654355 C67.7632685,31.4654355 68.4420652,30.7956654 68.4420652,29.9691727 C68.4420652,29.14268 67.7632685,28.4729098 66.9256371,28.4729098 C66.0883117,28.4729098 65.4092089,29.14268 65.4092089,29.9691727 Z" id="Fill-1"></path>
        </g>
    </g>
</svg>
